# This file uses centimeters as units for non-parametric coordinates.

v -3.000000 -1.474324 -3.089226
v -3.000000 -1.474324 3.089226
v -3.000000 -2.566537 0.000000
v -1.517771 -1.268777 -3.075443
v -3.000000 -0.003260 -3.163994
v -3.000000 -2.292477 -1.765016
v -1.517771 -2.292477 -0.000000
v -3.000000 -2.292477 1.765016
v -3.000000 -0.003260 3.163994
v -1.517771 -1.268777 3.075443
v -1.517771 -0.003259 3.172236
v -1.517771 -0.003259 -3.172236
v -1.517771 -2.034536 -1.735306
v -1.517771 -2.034536 1.735306
v -2.249631 -4.887871 0.875080
v 0.000000 -1.474324 -3.089226
v 0.000000 -1.474324 3.089226
v 0.000000 -2.566537 0.000000
v 1.512699 -1.268777 -3.075443
v 0.000000 -0.003260 -3.163994
v 0.000000 -2.292477 -1.765016
v 1.512699 -2.292477 -0.000000
v 0.000000 -2.292477 1.765016
v 0.000000 -0.003260 3.163994
v 1.512699 -1.268777 3.075443
v 1.512699 -0.003259 3.172236
v 1.512699 -0.003259 -3.172236
v 1.512699 -2.034536 -1.735306
v 1.512699 -2.034536 1.735306
v -0.785911 -4.887871 -0.875080
v 0.785911 -4.887871 0.875080
v 3.000000 -1.474324 -3.089226
v 3.000000 -1.474324 3.089226
v 3.000000 -2.566537 0.000000
v 3.000000 -0.003260 -3.163994
v 3.000000 -2.292477 -1.765016
v 3.000000 -2.292477 1.765016
v 3.000000 -0.003260 3.163994
v 2.248470 -4.887871 -0.875080
vt 0.149038 0.304675
vt 0.156095 0.446094
vt 0.039104 0.461811
vt 0.018039 0.327707
vt 0.916731 0.234066
vt 0.923936 0.368873
vt 0.806070 0.376849
vt 0.783324 0.239208
vt 0.660978 0.382881
vt 0.640167 0.244006
vt 0.481815 0.402271
vt 0.468340 0.251263
vt 0.285004 0.274840
vt 0.300047 0.429108
vt 0.392669 0.330105
vt 0.184649 0.587274
vt 0.053204 0.601322
vt 0.186626 0.732785
vt 0.068802 0.740988
vt 0.939443 0.509048
vt 0.953312 0.648186
vt 0.836311 0.663584
vt 0.807954 0.522826
vt 0.671305 0.539729
vt 0.692388 0.680304
vt 0.510605 0.707073
vt 0.496230 0.554908
vt 0.321245 0.570169
vt 0.331620 0.726550
vt 0.567488 0.477512
vt 0.425002 0.632117
vt 0.209573 0.870868
vt 0.076226 0.876242
vt 0.974127 0.782849
vt 0.843135 0.805475
vt 0.707363 0.835055
vt 0.524124 0.858550
vt 0.352580 0.865888
vt 0.599740 0.779466
vn 0.092827 -0.574614 0.813143
vn -0.000033 -0.521769 0.853087
vn -0.000000 -0.062569 0.998041
vn 0.006203 -0.062567 0.998021
vn 0.006203 -0.062568 -0.998022
vn -0.000000 -0.062569 -0.998041
vn -0.000033 -0.521769 -0.853087
vn 0.092827 -0.574614 -0.813143
vn 0.063674 -0.918432 -0.390420
vn 0.162944 -0.934804 -0.315581
vn 0.176131 -0.973191 -0.147912
vn 0.176131 -0.973191 -0.147912
vn 0.140483 -0.851053 0.505937
vn -0.063070 -0.919291 0.388493
vn -0.669738 -0.441565 -0.597052
vn 0.805793 -0.380283 -0.453964
vn 0.079763 -0.992575 0.091831
vn 0.706890 -0.364129 0.606397
vn -0.527873 -0.408031 0.744889
vn 0.000005 -0.576493 0.817102
vn -0.000000 -0.062569 0.998041
vn 0.000024 -0.521769 0.853087
vn -0.000000 -0.062569 0.998041
vn -0.000000 -0.062569 -0.998041
vn -0.000000 -0.062569 -0.998041
vn 0.000024 -0.521769 -0.853087
vn 0.000005 -0.576493 -0.817102
vn 0.066753 -0.921953 -0.381506
vn 0.063156 -0.919169 -0.388766
vn 0.172690 -0.973793 -0.148003
vn 0.172690 -0.973793 -0.148003
vn -0.066683 -0.922073 0.381227
vn -0.063587 -0.918556 0.390143
vn -0.172130 -0.973890 0.148018
vn -0.172130 -0.973890 0.148018
vn -0.698694 -0.364756 -0.615451
vn 0.521972 -0.413807 -0.745861
vn -0.082688 -0.992411 -0.091012
vn 0.663687 -0.449956 0.597544
vn -0.799254 -0.381853 0.464092
vn -0.664571 -0.449900 -0.596603
vn 0.800124 -0.380425 -0.463766
vn 0.083163 -0.992365 0.091081
vn 0.699749 -0.363624 0.614922
vn -0.522902 -0.413856 0.745183
vn -0.092497 -0.574536 0.813236
vn -0.006182 -0.062568 0.998022
vn -0.006182 -0.062568 -0.998022
vn -0.092497 -0.574536 -0.813236
vn -0.140014 -0.851110 -0.505972
vn -0.175549 -0.973293 0.147927
vn -0.175549 -0.973293 0.147927
vn -0.162402 -0.934883 0.315626
vn -0.705791 -0.365036 -0.607131
vn 0.526940 -0.408194 -0.745461
vn -0.079496 -0.992604 -0.091749
vn 0.668840 -0.441896 0.597813
vn -0.804899 -0.381448 0.454571
s 1
f 2/1/1 10/2/2 11/3/3 9/4/4
s 2
f 5/5/5 12/6/6 4/7/7 1/8/8
f 1/8/8 4/7/7 13/9/9 6/10/10
f 6/10/10 13/9/9 7/11/11 3/12/12
s 1
f 8/13/13 14/14/14 10/2/2 2/1/1
s 3
f 3/12/15 7/11/16 15/15/17
f 7/11/16 14/14/18 15/15/17
f 14/14/18 8/13/19 15/15/17
f 8/13/19 3/12/15 15/15/17
s 1
f 10/2/2 17/16/20 24/17/21 11/3/3
f 17/16/20 25/18/22 26/19/23 24/17/21
s 2
f 20/20/24 27/21/25 19/22/26 16/23/27
f 12/6/6 20/20/24 16/23/27 4/7/7
f 4/7/7 16/23/27 21/24/28 13/9/9
f 16/23/27 19/22/26 28/25/29 21/24/28
f 21/24/28 28/25/29 22/26/30 18/27/31
s 1
f 23/28/32 29/29/33 25/18/22 17/16/20
f 7/11/34 18/27/35 23/28/32 14/14/14
f 14/14/14 23/28/32 17/16/20 10/2/2
s 5
f 13/9/36 21/24/37 30/30/38
f 21/24/37 18/27/39 30/30/38
f 18/27/39 7/11/40 30/30/38
f 7/11/40 13/9/36 30/30/38
s 6
f 18/27/41 22/26/42 31/31/43
f 22/26/42 29/29/44 31/31/43
f 29/29/44 23/28/45 31/31/43
f 23/28/45 18/27/41 31/31/43
s 1
f 25/18/22 33/32/46 38/33/47 26/19/23
s 2
f 27/21/25 35/34/48 32/35/49 19/22/26
f 19/22/26 32/35/49 36/36/50 28/25/29
s 1
f 22/26/51 34/37/52 37/38/53 29/29/33
f 29/29/33 37/38/53 33/32/46 25/18/22
s 7
f 28/25/54 36/36/55 39/39/56
f 36/36/55 34/37/57 39/39/56
f 34/37/57 22/26/58 39/39/56
f 22/26/58 28/25/54 39/39/56
