# This file uses centimeters as units for non-parametric coordinates.

v -2.364450 -2.364450 2.912710
v 2.364450 -2.364450 2.912710
v -2.364450 2.364450 2.912710
v 2.364450 2.364450 2.912710
v -2.364450 2.364450 -2.912710
v 2.364450 2.364450 -2.912710
v -2.364450 -2.364450 -2.912710
v 2.364450 -2.364450 -2.912710
v -2.986462 2.986462 0.000000
v 2.986462 0.000000 -3.089226
v 0.000000 -2.986462 -3.089226
v -2.986462 -0.000000 -3.089226
v 2.986462 -2.986462 0.000000
v -2.986462 -2.986462 0.000000
v 0.000000 -2.986462 3.089226
v 2.986462 0.000000 3.089226
v 0.000000 2.986462 3.089226
v -2.986462 0.000000 3.089226
v 2.986462 2.986462 -0.000000
v 0.000000 2.986462 -3.089226
v 0.000000 0.000000 2.612125
v 0.000000 4.078676 -0.000000
v 0.000000 -0.000000 -2.612125
v 0.000000 -4.078676 0.000000
v 4.078676 0.000000 0.000000
v -4.078676 0.000000 0.000000
v -2.780916 1.402549 -3.075443
v 2.780916 1.402549 -3.075443
v 1.628246 0.000000 -3.163994
v 2.780916 -1.402549 -3.075443
v 1.402549 -2.780916 -3.075443
v 0.000000 -1.628246 -3.163994
v -1.402549 -2.780916 -3.075443
v -2.780916 -1.402549 -3.075443
v 0.000000 -3.804615 -1.765016
v -1.628246 -3.804615 -0.000000
v -2.780916 -2.780916 -1.789928
v 2.780916 -2.780916 -1.789928
v 1.628246 -3.804615 -0.000000
v 2.780916 -2.780916 1.789928
v 0.000000 -3.804615 1.765016
v -2.780916 -2.780916 1.789928
v 3.804615 -1.628246 0.000000
v 3.804615 0.000000 1.765016
v 3.804615 0.000000 -1.765016
v 3.804615 1.628246 -0.000000
v -3.804615 -1.628246 -0.000000
v -3.804615 -0.000000 -1.765016
v -3.804615 0.000000 1.765016
v -3.804615 1.628246 0.000000
v -1.402549 -2.780916 3.075443
v 0.000000 -1.628246 3.163994
v -1.628246 0.000000 3.163994
v -2.780916 -1.402549 3.075443
v 1.402549 -2.780916 3.075443
v 2.780916 -1.402549 3.075443
v 1.628246 0.000000 3.163994
v 2.780916 1.402549 3.075443
v 1.402549 2.780916 3.075443
v 0.000000 1.628246 3.163994
v -1.402549 2.780916 3.075443
v -2.780916 1.402549 3.075443
v 0.000000 3.804615 1.765016
v -1.628246 3.804615 0.000000
v -2.780916 2.780916 1.789928
v 2.780916 2.780916 1.789928
v 1.628246 3.804615 0.000000
v 2.780916 2.780916 -1.789928
v 1.402549 2.780916 -3.075443
v 0.000000 3.804615 -1.765016
v -1.402549 2.780916 -3.075443
v -2.780916 2.780916 -1.789928
v 0.000000 1.628246 -3.163994
v -1.628246 0.000000 -3.163994
v -1.515397 -1.515397 3.172236
v 1.515397 -1.515397 3.172236
v 1.515397 1.515397 3.172236
v -1.515397 1.515397 3.172236
v -1.515397 3.546674 1.735306
v 1.515397 3.546674 1.735306
v 1.515397 3.546674 -1.735306
v -1.515397 3.546674 -1.735306
v -1.515397 1.515397 -3.172236
v 1.515397 1.515397 -3.172236
v 1.515397 -1.515397 -3.172236
v -1.515397 -1.515397 -3.172236
v -1.515397 -3.546674 -1.735306
v 1.515397 -3.546674 -1.735306
v 1.515397 -3.546674 1.735306
v -1.515397 -3.546674 1.735306
v 3.546674 -1.515397 1.735306
v 3.546674 -1.515397 -1.735306
v 3.546674 1.515397 -1.735306
v 3.546674 1.515397 1.735306
v -3.546674 -1.515397 -1.735306
v -3.546674 -1.515397 1.735306
v -3.546674 1.515397 1.735306
v -3.546674 1.515397 -1.735306
v -0.785911 6.415732 0.875080
v 3.669495 5.559024 0.436671
v 0.785911 6.415733 -0.875081
v -3.726911 5.869178 -0.351739
v -5.210462 -2.979823 -0.484250
v -6.044565 -0.785911 0.875081
v -5.447309 3.954562 0.570572
v -6.044565 0.785911 -0.875081
v 4.940441 -3.392875 0.392071
v 6.227443 -0.785911 -0.875080
v 5.237494 3.905960 -0.359645
v 6.227443 0.785911 0.875080
v -0.785911 -6.400009 -0.875080
v 3.295384 -5.119726 -0.443380
v 0.785911 -6.400009 0.875080
v -3.327709 -5.066119 0.525100
vt 0.528783 0.257782
vt 0.487895 0.261160
vt 0.519616 0.202461
vt 0.562207 0.228123
vt 0.429006 0.261122
vt 0.074102 0.645671
vt 0.070063 0.757502
vt 0.577378 0.148303
vt 0.610650 0.191098
vt 0.149382 0.598650
vt 0.134493 0.663554
vt 0.177240 0.627302
vt 0.183080 0.672609
vt 0.194633 0.731101
vt 0.142257 0.742122
vt 0.164477 0.817911
vt 0.633663 0.042628
vt 0.205640 0.791063
vt 0.217202 0.834208
vt 0.202290 0.872335
vt 0.176728 0.925057
vt 0.644014 0.105620
vt 0.657591 0.153781
vt 0.708568 0.089295
vt 0.695559 0.127550
vt 0.783604 0.113632
vt 0.741648 0.156033
vt 0.824172 0.055265
vt 0.853380 0.176530
vt 0.799280 0.216786
vt 0.273834 0.906135
vt 0.270333 0.838480
vt 0.364796 0.901190
vt 0.381505 0.975787
vt 0.353733 0.835483
vt 0.432631 0.812539
vt 0.451473 0.868511
vt 0.478841 0.785155
vt 0.506803 0.813881
vt 0.484773 0.930566
vt 0.551204 0.854161
vt 0.899439 0.255719
vt 0.902117 0.335706
vt 0.840162 0.290080
vt 0.861004 0.339682
vt 0.870765 0.394583
vt 0.827653 0.369788
vt 0.582008 0.769560
vt 0.587595 0.659477
vt 0.813305 0.449188
vt 0.779157 0.407141
vt 0.521767 0.750021
vt 0.473128 0.740062
vt 0.461831 0.681967
vt 0.514725 0.672325
vt 0.493681 0.597113
vt 0.758726 0.554849
vt 0.451547 0.622588
vt 0.440775 0.579829
vt 0.456875 0.542606
vt 0.484507 0.491229
vt 0.747024 0.492214
vt 0.732432 0.444361
vt 0.682638 0.508923
vt 0.695010 0.470652
vt 0.607294 0.484826
vt 0.648656 0.442236
vt 0.567324 0.543449
vt 0.537658 0.421865
vt 0.590417 0.381833
vt 0.385446 0.507969
vt 0.387249 0.574656
vt 0.293324 0.511760
vt 0.278951 0.436974
vt 0.303156 0.576611
vt 0.223820 0.599649
vt 0.205634 0.543310
vt 0.173341 0.480728
vt 0.490413 0.341402
vt 0.549215 0.307915
vt 0.241254 0.661015
vt 0.315224 0.640199
vt 0.327957 0.705851
vt 0.252028 0.718103
vt 0.392881 0.628523
vt 0.404015 0.694018
vt 0.414968 0.750621
vt 0.340549 0.771271
vt 0.263565 0.783957
vt 0.694640 0.397530
vt 0.641840 0.341374
vt 0.694472 0.299446
vt 0.740834 0.361685
vt 0.595109 0.277711
vt 0.648360 0.237190
vt 0.694000 0.200888
vt 0.747226 0.258462
vt 0.794201 0.321065
vt 0.856807 0.115234
vt 0.325879 0.874381
vt 0.417189 0.932060
vt 0.848124 0.222604
vt 0.638450 0.383032
vt 0.648978 0.290932
vt 0.753992 0.210358
vt 0.739793 0.308627
vt 0.280494 0.613454
vt 0.356446 0.669635
vt 0.377209 0.799973
vt 0.299201 0.741981
vt 0.534091 0.483395
vt 0.330458 0.539014
vt 0.241012 0.479820
vt 0.543680 0.373994
vt 0.433620 0.361872
vt 0.478142 0.470894
vt 0.104747 0.558795
vt 0.394636 0.448826
vt 0.667917 0.567387
vt 0.543462 0.558527
vt 0.860061 0.507319
vt 0.929272 0.419665
vt 0.961203 0.334952
vt 0.956369 0.234961
vt 0.912656 0.127366
vt 0.266991 0.965825
vt 0.724325 0.030920
vt 0.116306 0.858622
vt 0.531893 0.089145
vt 0.461711 0.176261
vn -0.517494 -0.517494 0.681469
vn -0.196441 -0.571011 0.797093
vn 0.023330 0.023330 0.999456
vn -0.571011 -0.196441 0.797093
vn -0.000000 -0.587420 0.809282
vn -0.000000 0.069823 0.997559
vn 0.000000 0.000000 1.000000
vn 0.069823 0.000000 0.997559
vn -0.587420 0.000000 0.809282
vn 0.196441 -0.571011 0.797093
vn -0.023330 0.023330 0.999456
vn 0.517494 -0.517494 0.681469
vn 0.571011 -0.196441 0.797093
vn 0.587420 0.000000 0.809282
vn -0.069823 0.000000 0.997559
vn -0.023330 -0.023330 0.999456
vn -0.000000 -0.069823 0.997559
vn 0.571011 0.196441 0.797093
vn 0.517494 0.517494 0.681469
vn 0.196441 0.571011 0.797093
vn -0.000000 0.587420 0.809282
vn 0.023330 -0.023330 0.999456
vn -0.571011 0.196441 0.797093
vn -0.196441 0.571011 0.797093
vn -0.517494 0.517494 0.681469
vn -0.375443 0.854647 0.358639
vn -0.581419 0.740013 0.338131
vn 0.067237 0.922511 0.380069
vn -0.507985 0.846895 0.157228
vn -0.507985 0.846895 0.157228
vn 0.223263 0.908618 0.352941
vn 0.740013 0.581419 0.338131
vn 0.166293 0.974070 0.153407
vn 0.166293 0.974070 0.153407
vn 0.507985 0.846895 -0.157228
vn 0.507985 0.846895 -0.157228
vn 0.581419 0.740013 -0.338131
vn 0.375443 0.854647 -0.358639
vn 0.517494 0.517494 -0.681469
vn 0.196441 0.571011 -0.797093
vn -0.067237 0.922511 -0.380069
vn -0.000000 0.587420 -0.809282
vn -0.166293 0.974070 -0.153407
vn -0.166293 0.974070 -0.153407
vn -0.223263 0.908618 -0.352941
vn -0.196441 0.571011 -0.797093
vn -0.740013 0.581419 -0.338131
vn -0.517494 0.517494 -0.681469
vn 0.023330 -0.023330 -0.999456
vn -0.571011 0.196441 -0.797093
vn -0.000000 -0.069823 -0.997559
vn 0.000000 0.000000 -1.000000
vn 0.069823 0.000000 -0.997559
vn -0.587420 0.000000 -0.809282
vn -0.023330 -0.023330 -0.999456
vn 0.571011 0.196441 -0.797093
vn 0.587420 0.000000 -0.809282
vn -0.069823 -0.000000 -0.997559
vn -0.023330 0.023330 -0.999456
vn -0.000000 0.069823 -0.997559
vn 0.571011 -0.196441 -0.797093
vn 0.517494 -0.517494 -0.681469
vn 0.196441 -0.571011 -0.797093
vn -0.000000 -0.587420 -0.809282
vn 0.023330 0.023330 -0.999456
vn -0.571011 -0.196441 -0.797093
vn -0.196441 -0.571011 -0.797093
vn -0.517494 -0.517494 -0.681469
vn -0.375443 -0.854647 -0.358639
vn -0.581419 -0.740013 -0.338131
vn 0.067237 -0.922511 -0.380069
vn -0.507985 -0.846895 -0.157228
vn -0.507985 -0.846895 -0.157228
vn 0.223263 -0.908618 -0.352941
vn 0.740013 -0.581419 -0.338131
vn 0.166293 -0.974070 -0.153407
vn 0.166293 -0.974070 -0.153407
vn 0.507985 -0.846895 0.157228
vn 0.507985 -0.846895 0.157228
vn 0.581419 -0.740013 0.338131
vn 0.375443 -0.854647 0.358639
vn -0.067237 -0.922511 0.380069
vn -0.166293 -0.974070 0.153407
vn -0.166293 -0.974070 0.153407
vn -0.223263 -0.908618 0.352941
vn -0.740013 -0.581419 0.338131
vn 0.908618 -0.223263 0.352941
vn 0.974070 -0.166292 0.153407
vn 0.974070 -0.166292 0.153407
vn 0.922511 -0.067236 0.380069
vn 0.846895 -0.507985 -0.157228
vn 0.854647 -0.375443 -0.358639
vn 0.846895 -0.507985 -0.157228
vn 0.922511 0.067236 -0.380069
vn 0.974070 0.166292 -0.153407
vn 0.908618 0.223263 -0.352941
vn 0.974070 0.166292 -0.153407
vn 0.854647 0.375443 0.358639
vn 0.846895 0.507985 0.157228
vn 0.846895 0.507985 0.157228
vn -0.908618 -0.223263 -0.352941
vn -0.974070 -0.166292 -0.153407
vn -0.974070 -0.166292 -0.153407
vn -0.922511 -0.067236 -0.380069
vn -0.846895 -0.507985 0.157228
vn -0.854647 -0.375443 0.358639
vn -0.846895 -0.507985 0.157228
vn -0.922511 0.067236 0.380069
vn -0.974070 0.166292 0.153407
vn -0.908618 0.223263 0.352941
vn -0.974070 0.166292 0.153407
vn -0.854647 0.375443 -0.358639
vn -0.846895 0.507985 -0.157228
vn -0.846895 0.507985 -0.157228
vn -0.681559 0.363681 0.634991
vn 0.523532 0.411792 0.745883
vn -0.080471 0.995322 0.053469
vn 0.645692 0.448530 -0.617983
vn -0.800135 0.406071 -0.441463
vn -0.231663 0.690308 0.685425
vn 0.691887 0.125081 0.711089
vn 0.548690 0.835942 -0.011798
vn 0.849238 -0.139015 -0.509382
vn -0.495776 0.703556 -0.509131
vn -0.645692 0.448530 0.617983
vn 0.800135 0.406071 0.441463
vn 0.080472 0.995322 -0.053469
vn 0.681559 0.363681 -0.634991
vn -0.523532 0.411792 -0.745883
vn -0.852016 -0.157946 0.499121
vn 0.542414 0.643407 0.540198
vn -0.538282 0.842367 0.025893
vn 0.254081 0.661998 -0.705126
vn -0.698285 0.115117 -0.706503
vn -0.273205 -0.735191 -0.620366
vn -0.080489 -0.930668 0.356901
vn -0.877617 -0.479338 -0.004927
vn -0.663561 0.486614 0.568238
vn -0.679491 0.160364 -0.715944
vn -0.312741 -0.943695 0.107856
vn -0.409247 -0.666418 0.623221
vn -0.994307 -0.085950 0.062984
vn -0.465089 0.492821 0.735405
vn -0.512431 0.618485 -0.595727
vn -0.384126 -0.064654 -0.921014
vn -0.775309 -0.435215 -0.457693
vn -0.718979 -0.250693 0.648246
vn -0.808435 0.588473 0.011465
vn -0.047652 0.665565 0.744817
vn 0.181496 0.799127 -0.573110
vn -0.465089 -0.492821 -0.735405
vn -0.512431 -0.618485 0.595727
vn -0.994307 0.085951 -0.062984
vn -0.458103 0.785053 0.416933
vn -0.409247 0.666418 -0.623221
vn 0.257478 -0.673694 0.692706
vn -0.084206 -0.871286 -0.483497
vn 0.831930 -0.554655 -0.015826
vn 0.799906 0.419524 -0.429128
vn 0.758800 0.103203 0.643095
vn 0.431083 -0.793314 0.429908
vn 0.385570 -0.674530 -0.629560
vn 0.994843 -0.083096 -0.058163
vn 0.437419 0.509101 -0.741270
vn 0.479138 0.633221 0.607831
vn 0.797922 -0.436293 0.415894
vn 0.754466 -0.168607 -0.634313
vn 0.804859 0.593192 0.018039
vn 0.138043 0.649344 -0.747862
vn -0.230821 0.788209 0.570481
vn 0.437419 -0.509101 0.741270
vn 0.479138 -0.633221 -0.607831
vn 0.994843 0.083096 0.058163
vn 0.431083 0.793314 -0.429908
vn 0.385570 0.674530 0.629560
vn -0.681017 -0.365421 -0.634574
vn 0.522407 -0.413830 -0.745544
vn -0.080680 -0.995284 -0.053852
vn 0.644740 -0.450955 0.617211
vn -0.799621 -0.408059 0.440560
vn -0.147793 -0.722193 -0.675718
vn 0.699279 -0.234894 -0.675155
vn 0.529791 -0.848094 0.007637
vn 0.892868 0.036003 0.448876
vn -0.455612 -0.742909 0.490413
vn -0.644740 -0.450955 -0.617211
vn 0.799621 -0.408059 -0.440560
vn 0.080680 -0.995284 0.053852
vn 0.681017 -0.365421 0.634574
vn -0.522407 -0.413830 0.745544
vn -0.884511 0.027550 -0.465706
vn 0.423758 -0.769656 -0.477554
vn -0.537969 -0.842930 0.007640
vn 0.164145 -0.726903 0.666834
vn -0.699429 -0.210650 0.682954
s 1
f 1/1/1 51/2/2 75/3/3 54/4/4
f 51/2/2 15/5/5 52/130/6 75/3/3
f 75/3/3 52/130/6 21/129/7 53/8/8
f 54/4/4 75/3/3 53/8/8 18/9/9
f 15/117/5 55/10/10 76/11/11 52/6/6
f 55/10/10 2/12/12 56/13/13 76/11/11
f 76/11/11 56/13/13 16/14/14 57/15/15
f 52/6/6 76/11/11 57/15/15 21/7/7
f 21/7/7 57/15/15 77/16/16 60/128/17
f 57/15/15 16/14/14 58/18/18 77/16/16
f 77/16/16 58/18/18 4/19/19 59/20/20
f 60/128/17 77/16/16 59/20/20 17/21/21
f 18/9/9 53/8/8 78/22/22 62/23/23
f 53/8/8 21/129/7 60/17/17 78/22/22
f 78/22/22 60/17/17 17/127/21 61/24/24
f 62/23/23 78/22/22 61/24/24 3/25/25
f 3/25/25 61/24/24 79/26/26 65/27/27
f 61/24/24 17/127/21 63/28/28 79/26/26
f 65/27/27 79/26/26 64/29/29 9/30/30
f 17/21/21 59/20/20 80/31/31 63/126/28
f 59/20/20 4/19/19 66/32/32 80/31/31
f 63/126/28 80/31/31 67/33/33 22/34/34
s 2
f 67/33/35 19/35/36 68/36/37 81/37/38
f 81/37/38 68/36/37 6/38/39 69/39/40
f 70/40/41 81/37/38 69/39/40 20/41/42
f 64/29/43 22/125/44 70/124/41 82/42/45
f 82/42/45 70/124/41 20/123/42 71/43/46
f 72/44/47 82/42/45 71/43/46 5/45/48
f 5/45/48 71/43/46 83/46/49 27/47/50
f 71/43/46 20/123/42 73/122/51 83/46/49
f 83/46/49 73/122/51 23/121/52 74/50/53
f 27/47/50 83/46/49 74/50/53 12/51/54
f 20/41/42 69/39/40 84/52/55 73/48/51
f 69/39/40 6/38/39 28/53/56 84/52/55
f 84/52/55 28/53/56 10/54/57 29/55/58
f 73/48/51 84/52/55 29/55/58 23/49/52
f 23/49/52 29/55/58 85/56/59 32/120/60
f 29/55/58 10/54/57 30/58/61 85/56/59
f 85/56/59 30/58/61 8/59/62 31/60/63
f 32/120/60 85/56/59 31/60/63 11/61/64
f 12/51/54 74/50/53 86/62/65 34/63/66
f 74/50/53 23/121/52 32/57/60 86/62/65
f 86/62/65 32/57/60 11/119/64 33/64/67
f 34/63/66 86/62/65 33/64/67 7/65/68
f 7/65/68 33/64/67 87/66/69 37/67/70
f 33/64/67 11/119/64 35/68/71 87/66/69
f 37/67/70 87/66/69 36/69/72 14/70/73
f 11/61/64 31/60/63 88/71/74 35/118/71
f 31/60/63 8/59/62 38/72/75 88/71/74
f 35/118/71 88/71/74 39/73/76 24/74/77
s 1
f 39/73/78 13/75/79 40/76/80 89/77/81
f 89/77/81 40/76/80 2/12/12 55/10/10
f 41/78/82 89/77/81 55/10/10 15/117/5
f 36/69/83 24/116/84 41/115/82 90/79/85
f 90/79/85 41/115/82 15/5/5 51/2/2
f 42/80/86 90/79/85 51/2/2 1/1/1
f 2/12/12 40/76/80 91/81/87 56/13/13
f 91/81/87 43/82/88 25/83/89 44/84/90
f 56/13/13 91/81/87 44/84/90 16/14/14
s 2
f 13/75/91 38/72/75 92/85/92 43/82/93
f 38/72/75 8/59/62 30/58/61 92/85/92
f 92/85/92 30/58/61 10/54/57 45/86/94
f 25/83/95 45/86/94 93/87/96 46/88/97
f 45/86/94 10/54/57 28/53/56 93/87/96
f 93/87/96 28/53/56 6/38/39 68/36/37
s 1
f 16/14/14 44/84/90 94/89/98 58/18/18
f 94/89/98 46/88/99 19/35/100 66/32/32
f 58/18/18 94/89/98 66/32/32 4/19/19
s 2
f 7/65/68 37/67/70 95/90/101 34/63/66
f 95/90/101 47/91/102 26/92/103 48/93/104
f 34/63/66 95/90/101 48/93/104 12/51/54
s 1
f 14/70/105 42/80/86 96/94/106 47/91/107
f 42/80/86 1/1/1 54/4/4 96/94/106
f 96/94/106 54/4/4 18/9/9 49/95/108
f 26/92/109 49/95/108 97/96/110 50/97/111
f 49/95/108 18/9/9 62/23/23 97/96/110
f 97/96/110 62/23/23 3/25/25 65/27/27
s 2
f 12/51/54 48/93/104 98/98/112 27/47/50
f 98/98/112 50/97/113 9/30/114 72/44/47
f 27/47/50 98/98/112 72/44/47 5/45/48
s 3
f 79/26/115 63/28/116 99/99/117
f 63/28/116 22/125/118 99/99/117
f 22/125/118 64/29/119 99/99/117
f 64/29/119 79/26/115 99/99/117
s 4
f 80/31/120 66/32/121 100/100/122
f 66/32/121 19/35/123 100/100/122
f 19/35/123 67/33/124 100/100/122
f 67/33/124 80/31/120 100/100/122
s 5
f 22/34/125 67/33/126 101/101/127
f 67/33/126 81/37/128 101/101/127
f 81/37/128 70/40/129 101/101/127
f 70/40/129 22/34/125 101/101/127
s 6
f 9/30/130 64/29/131 102/102/132
f 64/29/131 82/42/133 102/102/132
f 82/42/133 72/44/134 102/102/132
f 72/44/134 9/30/130 102/102/132
s 7
f 37/67/135 14/70/136 103/103/137
f 14/70/136 47/91/138 103/103/137
f 47/91/138 95/90/139 103/103/137
f 95/90/139 37/67/135 103/103/137
s 8
f 47/91/140 96/94/141 104/104/142
f 96/94/141 49/95/143 104/104/142
f 49/95/143 26/92/144 104/104/142
f 26/92/144 47/91/145 104/104/142
s 9
f 50/97/146 97/96/147 105/105/148
f 97/96/147 65/27/149 105/105/148
f 65/27/149 9/30/150 105/105/148
f 9/30/150 50/97/146 105/105/148
s 10
f 48/93/151 26/92/152 106/106/153
f 26/92/152 50/97/154 106/106/153
f 50/97/154 98/98/155 106/106/153
f 98/98/155 48/93/151 106/106/153
s 11
f 40/76/156 13/75/157 107/107/158
f 13/75/157 43/82/159 107/107/158
f 43/82/159 91/81/160 107/107/158
f 91/81/160 40/76/156 107/107/158
s 12
f 43/82/161 92/85/162 108/108/163
f 92/85/162 45/86/164 108/108/163
f 45/86/164 25/83/165 108/108/163
f 25/83/165 43/82/161 108/108/163
s 13
f 46/88/166 93/87/167 109/109/168
f 93/87/167 68/36/169 109/109/168
f 68/36/169 19/35/170 109/109/168
f 19/35/170 46/88/166 109/109/168
s 14
f 44/84/171 25/83/172 110/110/173
f 25/83/172 46/88/174 110/110/173
f 46/88/174 94/89/175 110/110/173
f 94/89/175 44/84/171 110/110/173
s 15
f 87/66/176 35/68/177 111/111/178
f 35/68/177 24/116/179 111/111/178
f 24/116/179 36/69/180 111/111/178
f 36/69/180 87/66/176 111/111/178
s 16
f 88/71/181 38/72/182 112/112/183
f 38/72/182 13/75/184 112/112/183
f 13/75/184 39/73/185 112/112/183
f 39/73/185 88/71/181 112/112/183
s 17
f 24/74/186 39/73/187 113/113/188
f 39/73/187 89/77/189 113/113/188
f 89/77/189 41/78/190 113/113/188
f 41/78/190 24/74/186 113/113/188
s 18
f 14/70/191 36/69/192 114/114/193
f 36/69/192 90/79/194 114/114/193
f 90/79/194 42/80/195 114/114/193
f 42/80/195 14/70/191 114/114/193
