# This file uses centimeters as units for non-parametric coordinates.

v 5.364451 -0.844450 2.912710
v 5.364451 -0.844450 -2.912710
v 3.000000 -1.473893 -3.089226
v 5.986462 -1.466462 0.000000
v 3.000000 -1.473893 3.089226
v 3.000000 -2.566107 0.000000
v 5.780916 0.004604 -3.075443
v 4.402549 -1.260916 -3.075443
v 3.000000 0.004601 -3.163994
v 3.000000 -2.292047 -1.765016
v 5.780916 -1.260916 -1.789928
v 4.628246 -2.284615 -0.000000
v 5.780916 -1.260916 1.789928
v 3.000000 -2.292047 1.765016
v 6.804615 0.004601 0.000000
v 3.000000 0.004601 3.163994
v 4.402549 -1.260916 3.075443
v 5.780916 0.004604 3.075443
v 4.515397 0.004602 3.172236
v 4.515397 0.004602 -3.172236
v 4.515397 -2.026674 -1.735306
v 4.515397 -2.026674 1.735306
v 6.546675 0.004602 1.735306
v 6.546675 0.004602 -1.735306
v 7.940441 -1.872875 0.392071
v 6.295384 -3.599726 -0.443380
v 3.785911 -4.880010 0.875080
vt 0.193920 0.391789
vt 0.237701 0.504248
vt 0.164440 0.578783
vt 0.089616 0.468369
vt 0.266721 0.587797
vt 0.245295 0.666397
vt 0.873840 0.474492
vt 0.821819 0.580491
vt 0.778873 0.512729
vt 0.782604 0.423147
vt 0.914896 0.348852
vt 0.793177 0.305463
vt 0.659750 0.409196
vt 0.654714 0.284287
vt 0.682701 0.542782
vt 0.509028 0.430972
vt 0.488938 0.283428
vt 0.528000 0.568476
vt 0.368729 0.583755
vt 0.353182 0.462199
vt 0.317584 0.327017
vt 0.376747 0.720329
vt 0.706841 0.663320
vt 0.552247 0.714769
vt 0.479159 0.643948
vt 0.575988 0.490069
vt 0.425638 0.361084
vn 0.097324 -0.575138 0.812246
vn 0.193729 -0.565334 0.801790
vn 0.059990 -0.099348 0.993243
vn 0.006469 -0.062664 0.998014
vn 0.511616 -0.531328 0.675233
vn 0.622829 -0.391960 0.677090
vn 0.059990 -0.099348 -0.993243
vn 0.622829 -0.391960 -0.677090
vn 0.511616 -0.531328 -0.675233
vn 0.193729 -0.565334 -0.801790
vn 0.006469 -0.062664 -0.998014
vn 0.097324 -0.575138 -0.812246
vn 0.226608 -0.907806 -0.352899
vn 0.163139 -0.935280 -0.314066
vn 0.746670 -0.581959 -0.322192
vn 0.170763 -0.973293 -0.153433
vn 0.170763 -0.973293 -0.153433
vn 0.507985 -0.846895 0.157228
vn 0.507985 -0.846895 0.157228
vn 0.576319 -0.747386 0.330562
vn 0.376633 -0.854148 0.358578
vn 0.146546 -0.847559 0.510067
vn 0.770950 -0.453870 0.446810
vn 0.857987 -0.493770 -0.141596
vn 0.840174 -0.486724 -0.239181
vn 0.857987 -0.493770 -0.141596
vn 0.257477 -0.673695 0.692705
vn -0.070951 -0.847928 -0.525342
vn 0.839897 -0.539875 -0.055749
vn 0.816925 0.409383 -0.406249
vn 0.764609 0.113753 0.634377
vn -0.147793 -0.722193 -0.675718
vn 0.699279 -0.234894 -0.675155
vn 0.529791 -0.848094 0.007637
vn 0.892868 0.036003 0.448876
vn -0.455612 -0.742909 0.490413
vn -0.642255 -0.452195 -0.618893
vn 0.801089 -0.407736 -0.438188
vn 0.083286 -0.995059 0.054048
vn 0.682832 -0.365315 0.632681
vn -0.519487 -0.414671 0.747115
s 1
f 5/1/1 17/2/2 19/3/3 16/4/4
f 17/2/2 1/5/5 18/6/6 19/3/3
s 2
f 20/7/7 7/8/8 2/9/9 8/10/10
f 9/11/11 20/7/7 8/10/10 3/12/12
f 3/12/12 8/10/10 21/13/13 10/14/14
f 8/10/10 2/9/9 11/15/15 21/13/13
f 10/14/14 21/13/13 12/16/16 6/17/17
s 1
f 12/16/18 4/18/19 13/19/20 22/20/21
f 22/20/21 13/19/20 1/5/5 17/2/2
f 14/21/22 22/20/21 17/2/2 5/1/1
f 1/5/5 13/19/20 23/22/23 18/6/6
s 2
f 4/18/24 11/15/15 24/23/25 15/24/26
f 11/15/15 2/9/9 7/8/8 24/23/25
s 3
f 13/19/27 4/18/28 25/25/29
f 4/18/28 15/24/30 25/25/29
f 15/24/30 23/22/31 25/25/29
f 23/22/31 13/19/27 25/25/29
s 4
f 21/13/32 11/15/33 26/26/34
f 11/15/33 4/18/35 26/26/34
f 4/18/35 12/16/36 26/26/34
f 12/16/36 21/13/32 26/26/34
s 5
f 6/17/37 12/16/38 27/27/39
f 12/16/38 22/20/40 27/27/39
f 22/20/40 14/21/41 27/27/39
f 14/21/41 6/17/37 27/27/39
