# This file uses centimeters as units for non-parametric coordinates.

v 1.103631 12.675600 0.000000
v -1.054573 12.675600 0.000000
v -5.959972 0.000000 0.000000
v -3.996372 0.000000 0.000000
v -2.816970 3.076000 0.000000
v 2.509430 3.076000 0.000000
v 3.666829 0.000000 0.000000
v 6.012829 0.000000 0.000000
v -0.161319 10.346706 0.000000
v 1.876641 4.896494 0.000000
v -2.178783 4.896494 0.000000
v 1.103631 12.675600 0.672254
v -1.054573 12.675600 0.672254
v -5.959972 0.000000 0.672254
v -3.996372 0.000000 0.672254
v -2.816970 3.076000 0.672254
v 2.509430 3.076000 0.672254
v 3.666829 0.000000 0.672254
v 6.012829 0.000000 0.672254
v -0.161319 10.346706 0.672254
v 1.876641 4.896494 0.672254
v -2.178783 4.896494 0.672254
v 1.076203 12.635565 0.847254
v -1.027137 12.635565 0.847254
v -5.901550 0.040035 0.847254
v -4.023899 0.040035 0.847254
v -2.844497 3.116035 0.847254
v 2.537140 3.116035 0.847254
v 3.694539 0.040035 0.847254
v 5.954392 0.040035 0.847254
v -0.161510 10.461522 0.847254
v 1.934353 4.856459 0.847254
v -2.236293 4.856459 0.847254
v 0.932454 12.425737 1.022254
v -0.883346 12.425737 1.022254
v -5.595355 0.249863 1.022254
v -4.168170 0.249863 1.022254
v -2.988769 3.325863 1.022254
v 2.682381 3.325863 1.022254
v 3.839779 0.249863 1.022254
v 5.648110 0.249863 1.022254
v -0.162502 11.063277 1.022254
v 2.236828 4.646632 1.022254
v -2.537704 4.646632 1.022254
vt 0.486758 0.508118
vt 0.486758 0.001992
vt 0.513601 0.001992
vt 0.513601 0.508118
vt 0.520588 0.003591
vt 0.520588 0.506519
vt 0.527576 0.011969
vt 0.527576 0.498141
vt 0.288850 0.511836
vt 0.288850 0.634658
vt 0.262007 0.634658
vt 0.262007 0.511836
vt 0.255019 0.636256
vt 0.255019 0.513434
vt 0.248032 0.644635
vt 0.248032 0.521813
vt 0.201499 0.634658
vt 0.201499 0.511836
vt 0.228342 0.511836
vt 0.228342 0.634658
vt 0.235329 0.513434
vt 0.235329 0.636256
vt 0.242317 0.521813
vt 0.242317 0.644635
vt 0.574777 0.001992
vt 0.574777 0.508118
vt 0.547935 0.508118
vt 0.547935 0.001992
vt 0.540947 0.506519
vt 0.540947 0.003591
vt 0.533960 0.498141
vt 0.533960 0.011969
vt 0.434163 0.739435
vt 0.434163 0.521813
vt 0.461005 0.521813
vt 0.461005 0.739435
vt 0.467993 0.520214
vt 0.467993 0.744019
vt 0.474981 0.511836
vt 0.474981 0.768047
vt 0.428448 0.521813
vt 0.428448 0.739435
vt 0.401605 0.739435
vt 0.401605 0.521813
vt 0.394618 0.744019
vt 0.394618 0.520214
vt 0.387630 0.768047
vt 0.387630 0.511836
vt 0.149251 0.511836
vt 0.149251 0.598011
vt 0.122409 0.598011
vt 0.122409 0.511836
vt 0.115421 0.596915
vt 0.115421 0.512931
vt 0.108434 0.591174
vt 0.108434 0.518671
vt 0.061901 0.590241
vt 0.061901 0.511836
vt 0.088743 0.511836
vt 0.088743 0.590241
vt 0.095731 0.512935
vt 0.095731 0.587908
vt 0.102718 0.518696
vt 0.102718 0.575682
vt 0.341097 0.731420
vt 0.341097 0.518741
vt 0.367940 0.518741
vt 0.367940 0.731420
vt 0.374928 0.517635
vt 0.374928 0.732519
vt 0.381915 0.511836
vt 0.381915 0.738280
vt 0.154966 0.605510
vt 0.154966 0.511836
vt 0.181809 0.511836
vt 0.181809 0.605510
vt 0.188797 0.514169
vt 0.188797 0.604403
vt 0.195784 0.526399
vt 0.195784 0.598604
vt 0.335382 0.526218
vt 0.335382 0.688147
vt 0.308540 0.688147
vt 0.308540 0.526218
vt 0.301552 0.690444
vt 0.301552 0.523913
vt 0.294565 0.702479
vt 0.294565 0.511836
vt 0.479919 0.508118
vt 0.386245 0.508118
vt 0.340032 0.385296
vt 0.127353 0.385296
vt 0.080260 0.508118
vt 0.001856 0.508118
vt 0.197724 0.001992
vt 0.283899 0.001992
vt 0.152835 0.312605
vt 0.314765 0.312605
vt 0.233391 0.094983
vt 0.741345 0.998008
vt 0.668842 0.998008
vt 0.480696 0.511836
vt 0.537682 0.511836
vt 0.584774 0.634658
vt 0.811218 0.634658
vt 0.857432 0.511836
vt 0.929637 0.511836
vt 0.697625 0.943606
vt 0.793428 0.687395
vt 0.602785 0.687395
vn 0.000000 0.000000 -1.000000
vn 0.000000 0.000000 -1.000000
vn 0.000000 0.000000 -1.000000
vn 0.000000 0.000000 -1.000000
vn 0.000000 0.000000 -1.000000
vn 0.000000 0.000000 -1.000000
vn 0.000000 0.000000 -1.000000
vn 0.000000 0.000000 -1.000000
vn 0.000000 0.000000 -1.000000
vn 0.000000 0.000000 -1.000000
vn 0.000000 0.000000 -1.000000
vn 0.873413 0.486980 0.000000
vn -0.873525 0.486780 0.000000
vn 0.872372 0.486576 0.047023
vn -0.872777 0.485863 0.046885
vn -0.974110 0.226075 0.000000
vn -0.973030 0.225825 0.047070
vn 0.699448 -0.714683 0.000000
vn 0.700263 -0.712038 0.051330
vn 0.427440 -0.904044 0.000000
vn 0.426650 -0.902373 0.060759
vn -0.428624 -0.903483 0.000000
vn -0.427174 -0.902097 0.061187
vn -0.659782 -0.751457 0.000000
vn -0.660540 -0.748996 0.051880
vn 0.980161 0.198204 0.000000
vn 0.979006 0.197970 0.048524
vn 0.000000 -1.000000 0.000000
vn -0.937813 0.347142 0.000000
vn -0.000001 -0.985275 0.170976
vn -0.933834 0.345670 0.092011
vn 0.936660 0.350239 0.000000
vn 0.931121 0.352737 0.092686
vn 0.732530 0.409482 0.543806
vn -0.737819 0.404563 0.540326
vn -0.837492 0.195925 0.510118
vn 0.596232 -0.564172 0.571154
vn 0.306557 -0.651687 0.693777
vn -0.299085 -0.652079 0.696664
vn -0.560435 -0.594954 0.576145
vn 0.835885 0.170508 0.521751
vn -0.524807 0.194302 0.828749
vn 0.000000 -0.342865 0.939385
vn 0.502120 0.226166 0.834700
vn 0.088142 0.049223 0.994891
vn -0.100561 0.053913 0.993469
vn -0.342207 0.082277 0.936015
vn 0.104047 -0.088169 0.990656
vn 0.031575 -0.067483 0.997221
vn -0.030069 -0.066752 0.997316
vn -0.085064 -0.082015 0.992994
vn 0.292954 0.061489 0.954147
vn -0.015597 0.005813 0.999861
vn -0.000000 -0.010050 0.999950
vn 0.017063 0.008096 0.999822
s 1
f 8/89/1 7/90/2 1/96/3
f 7/90/2 6/91/4 1/96/3
f 3/94/5 2/95/6 4/93/7
f 4/93/7 2/95/6 5/92/8
f 5/92/8 2/95/6 11/97/9
f 11/97/9 2/95/6 9/99/10
f 2/95/6 1/96/3 9/99/10
f 5/92/8 11/97/9 6/91/4
f 11/97/9 10/98/11 6/91/4
f 6/91/4 10/98/11 1/96/3
f 10/98/11 9/99/10 1/96/3
s 3
f 1/49/12 2/50/13 12/52/14
f 12/52/14 2/50/13 13/51/15
f 2/1/13 3/2/16 13/4/15
f 13/4/15 3/2/16 14/3/17
f 3/57/16 4/58/18 14/60/17
f 14/60/17 4/58/18 15/59/19
f 4/9/18 5/10/20 15/12/19
f 15/12/19 5/10/20 16/11/21
f 5/65/20 6/66/22 16/68/21
f 16/68/21 6/66/22 17/67/23
f 6/17/22 7/18/24 17/20/23
f 17/20/23 7/18/24 18/19/25
f 7/73/24 8/74/26 18/76/25
f 18/76/25 8/74/26 19/75/27
f 8/25/26 1/26/12 19/28/27
f 19/28/27 1/26/12 12/27/14
f 9/33/28 10/34/29 20/36/30
f 20/36/30 10/34/29 21/35/31
f 10/81/29 11/82/32 21/84/31
f 21/84/31 11/82/32 22/83/33
f 11/41/32 9/42/28 22/44/33
f 22/44/33 9/42/28 20/43/30
f 12/52/14 13/51/15 23/54/34
f 23/54/34 13/51/15 24/53/35
f 14/3/17 25/5/36 13/4/15
f 13/4/15 25/5/36 24/6/35
f 14/60/17 15/59/19 25/62/36
f 25/62/36 15/59/19 26/61/37
f 15/12/19 16/11/21 26/14/37
f 26/14/37 16/11/21 27/13/38
f 16/68/21 17/67/23 27/70/38
f 27/70/38 17/67/23 28/69/39
f 18/19/25 29/21/40 17/20/23
f 17/20/23 29/21/40 28/22/39
f 19/75/27 30/77/41 18/76/25
f 18/76/25 30/77/41 29/78/40
f 19/28/27 12/27/14 30/30/41
f 30/30/41 12/27/14 23/29/34
f 21/35/31 32/37/42 20/36/30
f 20/36/30 32/37/42 31/38/43
f 21/84/31 22/83/33 32/86/42
f 32/86/42 22/83/33 33/85/44
f 22/44/33 20/43/30 33/46/44
f 33/46/44 20/43/30 31/45/43
f 23/54/34 24/53/35 34/56/45
f 34/56/45 24/53/35 35/55/46
f 25/5/36 36/7/47 24/6/35
f 24/6/35 36/7/47 35/8/46
f 25/62/36 26/61/37 36/64/47
f 36/64/47 26/61/37 37/63/48
f 26/14/37 27/13/38 37/16/48
f 37/16/48 27/13/38 38/15/49
f 27/70/38 28/69/39 38/72/49
f 38/72/49 28/69/39 39/71/50
f 29/21/40 40/23/51 28/22/39
f 28/22/39 40/23/51 39/24/50
f 30/77/41 41/79/52 29/78/40
f 29/78/40 41/79/52 40/80/51
f 30/30/41 23/29/34 41/32/52
f 41/32/52 23/29/34 34/31/45
f 32/37/42 43/39/53 31/38/43
f 31/38/43 43/39/53 42/40/54
f 32/86/42 33/85/44 43/88/53
f 43/88/53 33/85/44 44/87/55
f 33/46/44 31/45/43 44/48/55
f 44/48/55 31/45/43 42/47/54
f 37/103/48 38/104/49 36/102/47
f 40/106/51 41/107/52 39/105/50
f 34/100/45 35/101/46 41/107/52
f 41/107/52 35/101/46 42/108/54
f 35/101/46 36/102/47 42/108/54
f 42/108/54 36/102/47 44/110/55
f 36/102/47 38/104/49 44/110/55
f 38/104/49 39/105/50 44/110/55
f 44/110/55 39/105/50 43/109/53
f 39/105/50 41/107/52 43/109/53
f 41/107/52 42/108/54 43/109/53
