# This file uses centimeters as units for non-parametric coordinates.

v 5.274878 12.675600 0.000000
v -3.426323 12.675600 0.000000
v -3.426323 0.000000 0.000000
v 5.714278 0.000000 0.000000
v 5.714278 1.806600 0.000000
v -1.141122 1.806600 0.000000
v -1.141122 5.722600 0.000000
v 4.298277 5.722600 0.000000
v 4.298277 7.529200 0.000000
v -1.141122 7.529200 0.000000
v -1.141122 10.869000 0.000000
v 5.274878 10.869000 0.000000
v 5.274878 12.675600 0.672254
v -3.426323 12.675600 0.672254
v -3.426323 0.000000 0.672254
v 5.714278 0.000000 0.672254
v 5.714278 1.806600 0.672254
v -1.141122 1.806600 0.672254
v -1.141122 5.722600 0.672254
v 4.298277 5.722600 0.672254
v 4.298277 7.529200 0.672254
v -1.141122 7.529200 0.672254
v -1.141122 10.869000 0.672254
v 5.274878 10.869000 0.672254
v 5.234843 12.635565 0.847254
v -3.386288 12.635565 0.847254
v -3.386288 0.040035 0.847254
v 5.674243 0.040035 0.847254
v 5.674243 1.766565 0.847254
v -1.181158 1.766565 0.847254
v -1.181158 5.762635 0.847254
v 4.258242 5.762635 0.847254
v 4.258242 7.489165 0.847254
v -1.181158 7.489165 0.847254
v -1.181158 10.909036 0.847254
v 5.234843 10.909036 0.847254
v 5.025015 12.425737 1.022254
v -3.176461 12.425737 1.022254
v -3.176461 0.249863 1.022254
v 5.464415 0.249863 1.022254
v 5.464415 1.556737 1.022254
v -1.390985 1.556737 1.022254
v -1.390985 5.972463 1.022254
v 4.048415 5.972463 1.022254
v 4.048415 7.279337 1.022254
v -1.390985 7.279337 1.022254
v -1.390985 11.118863 1.022254
v 5.025015 11.118863 1.022254
vt 0.450446 0.613998
vt 0.450446 0.001870
vt 0.482910 0.001870
vt 0.482910 0.613998
vt 0.491361 0.003804
vt 0.491361 0.612065
vt 0.499813 0.013937
vt 0.499813 0.601932
vt 0.609495 0.593857
vt 0.609495 0.681101
vt 0.577031 0.681101
vt 0.577031 0.593857
vt 0.568580 0.679168
vt 0.568580 0.595791
vt 0.560128 0.669035
vt 0.560128 0.605924
vt 0.720499 0.605924
vt 0.720499 0.795034
vt 0.688034 0.795034
vt 0.688034 0.605924
vt 0.679583 0.796968
vt 0.679583 0.603990
vt 0.671132 0.807101
vt 0.671132 0.593857
vt 0.553993 0.617990
vt 0.553993 0.705234
vt 0.521529 0.705234
vt 0.521529 0.617990
vt 0.513078 0.703300
vt 0.513078 0.619923
vt 0.504627 0.693168
vt 0.504627 0.630056
vt 0.664997 0.605923
vt 0.664997 0.767209
vt 0.632532 0.767209
vt 0.632532 0.605923
vt 0.624081 0.769142
vt 0.624081 0.603990
vt 0.615630 0.779275
vt 0.615630 0.593857
vt 0.498491 0.617990
vt 0.498491 0.705234
vt 0.466027 0.705234
vt 0.466027 0.617990
vt 0.457576 0.703300
vt 0.457576 0.619923
vt 0.449125 0.693167
vt 0.449125 0.630056
vt 0.998008 0.447278
vt 0.998008 0.867475
vt 0.965544 0.867475
vt 0.965544 0.447278
vt 0.957093 0.865542
vt 0.957093 0.449211
vt 0.948641 0.855409
vt 0.948641 0.459344
vt 0.931837 0.443287
vt 0.931837 0.001870
vt 0.964302 0.001870
vt 0.964302 0.443287
vt 0.972753 0.003804
vt 0.972753 0.441353
vt 0.981204 0.013937
vt 0.981204 0.431220
vt 0.942506 0.593857
vt 0.942506 0.924917
vt 0.910042 0.924917
vt 0.910042 0.593857
vt 0.901591 0.926850
vt 0.901591 0.595791
vt 0.893140 0.936983
vt 0.893140 0.605923
vt 0.782136 0.856536
vt 0.782136 0.593857
vt 0.814600 0.593857
vt 0.814600 0.856536
vt 0.823051 0.595791
vt 0.823051 0.858469
vt 0.831502 0.605924
vt 0.831502 0.868602
vt 0.776000 0.593857
vt 0.776000 0.856536
vt 0.743536 0.856536
vt 0.743536 0.593857
vt 0.735085 0.858469
vt 0.735085 0.595791
vt 0.726634 0.868602
vt 0.726634 0.605924
vt 0.837638 0.903698
vt 0.837638 0.593857
vt 0.870102 0.593857
vt 0.870102 0.903698
vt 0.878553 0.595791
vt 0.878553 0.905631
vt 0.887004 0.605923
vt 0.887004 0.915764
vt 0.422189 0.089114
vt 0.112349 0.089114
vt 0.112349 0.250399
vt 0.375027 0.250399
vt 0.375027 0.337643
vt 0.112349 0.337643
vt 0.112349 0.526754
vt 0.443409 0.526754
vt 0.443409 0.613998
vt 0.001992 0.613998
vt 0.001992 0.001870
vt 0.422189 0.001870
vt 0.903030 0.589866
vt 0.506966 0.589866
vt 0.506966 0.001870
vt 0.924250 0.001870
vt 0.924250 0.064982
vt 0.593190 0.064982
vt 0.593190 0.278225
vt 0.855868 0.278225
vt 0.855868 0.341337
vt 0.593190 0.341337
vt 0.593190 0.526754
vt 0.903030 0.526754
vn 0.000000 0.000000 -1.000000
vn 0.000000 0.000000 -1.000000
vn 0.000000 0.000000 -1.000000
vn 0.000000 0.000000 -1.000000
vn 0.000000 0.000000 -1.000000
vn 0.000000 0.000000 -1.000000
vn 0.000000 0.000000 -1.000000
vn 0.000000 0.000000 -1.000000
vn 0.000000 0.000000 -1.000000
vn 0.000000 0.000000 -1.000000
vn 0.000000 0.000000 -1.000000
vn 0.000000 0.000000 -1.000000
vn 0.203291 0.979118 0.000000
vn -0.824445 0.565942 0.000000
vn 0.201585 0.978240 0.049101
vn -0.823498 0.564355 0.057921
vn -0.811104 -0.584902 0.000000
vn -0.809414 -0.584351 0.058170
vn 0.193895 -0.981022 0.000000
vn 0.193958 -0.979793 0.048844
vn 0.254829 0.966986 0.000000
vn 0.252715 0.966213 0.050667
vn 0.496008 0.868318 0.000000
vn 0.494748 0.866112 0.071232
vn 0.584269 -0.811560 0.000000
vn 0.584441 -0.808114 0.073359
vn 0.315202 -0.949025 0.000000
vn 0.314761 -0.947699 0.052847
vn 0.315202 0.949025 0.000000
vn 0.312641 0.948428 0.052348
vn 0.523242 0.852184 0.000000
vn 0.521892 0.849984 0.071808
vn 0.461731 -0.887020 0.000000
vn 0.462495 -0.883783 0.070900
vn 0.271037 -0.962569 0.000000
vn 0.270677 -0.961288 0.051570
vn 0.153964 0.828347 0.538642
vn -0.659224 0.442197 0.608182
vn -0.638937 -0.467417 0.610967
vn 0.164178 -0.824659 0.541279
vn 0.191103 0.812642 0.550539
vn 0.330322 0.570856 0.751672
vn 0.397643 -0.508978 0.763427
vn 0.254371 -0.778848 0.573316
vn 0.235029 0.792995 0.562069
vn 0.347200 0.556964 0.754483
vn 0.326187 -0.569913 0.754189
vn 0.220338 -0.795769 0.564095
vn 0.027387 0.180540 0.983186
vn -0.189827 0.123645 0.974001
vn -0.125045 -0.092991 0.987784
vn 0.033573 -0.171361 0.984636
vn 0.028138 0.147602 0.988647
vn 0.008532 0.014528 0.999858
vn 0.019472 -0.023986 0.999523
vn 0.044961 -0.144459 0.988489
vn 0.035150 0.146297 0.988616
vn 0.025467 0.040102 0.998871
vn 0.014141 -0.023631 0.999621
vn 0.038440 -0.145683 0.988584
s 1
f 12/97/1 11/98/2 1/108/3
f 1/108/3 11/98/2 2/107/4
f 2/107/4 11/98/2 3/106/5
f 11/98/2 10/99/6 3/106/5
f 9/100/7 8/101/8 10/99/6
f 8/101/8 7/102/9 10/99/6
f 10/99/6 7/102/9 3/106/5
f 7/102/9 6/103/10 3/106/5
f 3/106/5 6/103/10 4/105/11
f 6/103/10 5/104/12 4/105/11
s 3
f 1/49/13 2/50/14 13/52/15
f 13/52/15 2/50/14 14/51/16
f 2/1/14 3/2/17 14/4/16
f 14/4/16 3/2/17 15/3/18
f 3/57/17 4/58/19 15/60/18
f 15/60/18 4/58/19 16/59/20
f 4/9/19 5/10/21 16/12/20
f 16/12/20 5/10/21 17/11/22
f 5/65/21 6/66/23 17/68/22
f 17/68/22 6/66/23 18/67/24
f 6/17/23 7/18/25 18/20/24
f 18/20/24 7/18/25 19/19/26
f 7/73/25 8/74/27 19/76/26
f 19/76/26 8/74/27 20/75/28
f 8/25/27 9/26/29 20/28/28
f 20/28/28 9/26/29 21/27/30
f 9/81/29 10/82/31 21/84/30
f 21/84/30 10/82/31 22/83/32
f 10/33/31 11/34/33 22/36/32
f 22/36/32 11/34/33 23/35/34
f 11/89/33 12/90/35 23/92/34
f 23/92/34 12/90/35 24/91/36
f 12/41/35 1/42/13 24/44/36
f 24/44/36 1/42/13 13/43/15
f 13/52/15 14/51/16 25/54/37
f 25/54/37 14/51/16 26/53/38
f 14/4/16 15/3/18 26/6/38
f 26/6/38 15/3/18 27/5/39
f 15/60/18 16/59/20 27/62/39
f 27/62/39 16/59/20 28/61/40
f 16/12/20 17/11/22 28/14/40
f 28/14/40 17/11/22 29/13/41
f 17/68/22 18/67/24 29/70/41
f 29/70/41 18/67/24 30/69/42
f 18/20/24 19/19/26 30/22/42
f 30/22/42 19/19/26 31/21/43
f 20/75/28 32/77/44 19/76/26
f 19/76/26 32/77/44 31/78/43
f 20/28/28 21/27/30 32/30/44
f 32/30/44 21/27/30 33/29/45
f 21/84/30 22/83/32 33/86/45
f 33/86/45 22/83/32 34/85/46
f 22/36/32 23/35/34 34/38/46
f 34/38/46 23/35/34 35/37/47
f 24/91/36 36/93/48 23/92/34
f 23/92/34 36/93/48 35/94/47
f 24/44/36 13/43/15 36/46/48
f 36/46/48 13/43/15 25/45/37
f 25/54/37 26/53/38 37/56/49
f 37/56/49 26/53/38 38/55/50
f 26/6/38 27/5/39 38/8/50
f 38/8/50 27/5/39 39/7/51
f 27/62/39 28/61/40 39/64/51
f 39/64/51 28/61/40 40/63/52
f 28/14/40 29/13/41 40/16/52
f 40/16/52 29/13/41 41/15/53
f 29/70/41 30/69/42 41/72/53
f 41/72/53 30/69/42 42/71/54
f 30/22/42 31/21/43 42/24/54
f 42/24/54 31/21/43 43/23/55
f 32/77/44 44/79/56 31/78/43
f 31/78/43 44/79/56 43/80/55
f 32/30/44 33/29/45 44/32/56
f 44/32/56 33/29/45 45/31/57
f 33/86/45 34/85/46 45/88/57
f 45/88/57 34/85/46 46/87/58
f 34/38/46 35/37/47 46/40/58
f 46/40/58 35/37/47 47/39/59
f 36/93/48 48/95/60 35/94/47
f 35/94/47 48/95/60 47/96/59
f 36/46/48 25/45/37 48/48/60
f 48/48/60 25/45/37 37/47/49
f 41/113/53 42/114/54 40/112/52
f 40/112/52 42/114/54 39/111/51
f 39/111/51 42/114/54 38/110/50
f 42/114/54 43/115/55 38/110/50
f 44/116/56 45/117/57 43/115/55
f 45/117/57 46/118/58 43/115/55
f 43/115/55 46/118/58 38/110/50
f 48/120/60 37/109/49 47/119/59
f 37/109/49 38/110/50 47/119/59
f 38/110/50 46/118/58 47/119/59
