# This file uses centimeters as units for non-parametric coordinates.

v 0.480882 12.675600 0.000000
v -3.712317 12.675600 0.000000
v -3.712317 0.000000 0.000000
v -1.427117 0.000000 0.000000
v -1.427117 4.667800 0.000000
v -0.250918 4.667800 0.000000
v 1.031284 4.739800 0.000000
v 2.171283 4.955400 0.000000
v 3.169284 5.315000 0.000000
v 4.024883 5.818400 0.000000
v 4.711482 6.448400 0.000000
v 5.201885 7.188400 0.000000
v 5.496284 8.037801 0.000000
v 5.594283 8.997000 0.000000
v 5.461284 10.110400 0.000000
v 5.062282 11.030801 0.000000
v 4.397281 11.758401 0.000000
v 3.466281 12.292801 0.000000
v 2.977084 12.460401 0.000000
v 2.316283 12.580000 0.000000
v 1.484283 12.651800 0.000000
v 0.248445 10.858014 0.000000
v 0.995092 10.830353 0.000000
v 1.621942 10.747569 0.000000
v 2.128795 10.609663 0.000000
v 2.516048 10.416235 0.000000
v 2.802409 10.159525 0.000000
v 3.006984 9.830776 0.000000
v 3.129764 9.429991 0.000000
v 3.170760 8.957564 0.000000
v 2.944495 7.875999 0.000000
v 2.266105 7.103481 0.000000
v 1.135587 6.640010 0.000000
v -0.447459 6.485586 0.000000
v -1.415595 6.485586 0.000000
v -1.415595 10.858014 0.000000
v 0.480882 12.675600 0.672254
v -3.712317 12.675600 0.672254
v -3.712317 0.000000 0.672254
v -1.427117 0.000000 0.672254
v -1.427117 4.667800 0.672254
v -0.250918 4.667800 0.672254
v 1.031284 4.739800 0.672254
v 2.171283 4.955400 0.672254
v 3.169284 5.315000 0.672254
v 4.024883 5.818400 0.672254
v 4.711482 6.448400 0.672254
v 5.201885 7.188400 0.672254
v 5.496284 8.037801 0.672254
v 5.594283 8.997000 0.672254
v 5.461284 10.110400 0.672254
v 5.062282 11.030801 0.672254
v 4.397281 11.758401 0.672254
v 3.466281 12.292801 0.672254
v 2.977084 12.460401 0.672254
v 2.316283 12.580000 0.672254
v 1.484283 12.651800 0.672254
v 0.248445 10.858014 0.672254
v 0.995092 10.830353 0.672254
v 1.621942 10.747569 0.672254
v 2.128795 10.609663 0.672254
v 2.516048 10.416235 0.672254
v 2.802409 10.159525 0.672254
v 3.006984 9.830776 0.672254
v 3.129764 9.429991 0.672254
v 3.170760 8.957564 0.672254
v 2.944495 7.875999 0.672254
v 2.266105 7.103481 0.672254
v 1.135587 6.640010 0.672254
v -0.447459 6.485586 0.672254
v -1.415595 6.485586 0.672254
v -1.415595 10.858014 0.672254
v 0.480407 12.635565 0.847254
v -3.672282 12.635565 0.847254
v -3.672282 0.040035 0.847254
v -1.467152 0.040035 0.847254
v -1.467152 4.707835 0.847254
v -0.252042 4.707835 0.847254
v 1.026420 4.779626 0.847254
v 2.160713 4.994145 0.847254
v 3.152202 5.351399 0.847254
v 4.000934 5.850760 0.847254
v 4.680812 6.474593 0.847254
v 5.165714 7.206295 0.847254
v 5.456931 8.046507 0.847254
v 5.554004 8.996655 0.847254
v 5.422225 10.099843 0.847254
v 5.028213 11.008734 0.847254
v 4.371940 11.726786 0.847254
v 3.449676 12.256170 0.847254
v 2.966975 12.421545 0.847254
v 2.310985 12.540273 0.847254
v 1.482085 12.611806 0.847254
v 0.249187 10.898049 0.847254
v 0.998462 10.870291 0.847254
v 1.629854 10.786907 0.847254
v 2.143134 10.647252 0.847254
v 2.538760 10.449643 0.847254
v 2.833385 10.185524 0.847254
v 3.043735 9.847495 0.847254
v 3.169284 9.437670 0.847254
v 3.211154 8.955145 0.847254
v 2.981525 7.857494 0.847254
v 2.289985 7.070003 0.847254
v 1.145330 6.600736 0.847254
v -0.445512 6.445551 0.847254
v -1.455630 6.445551 0.847254
v -1.455630 10.898049 0.847254
v 0.477920 12.425737 1.022254
v -3.462455 12.425737 1.022254
v -3.462455 0.249863 1.022254
v -1.676980 0.249863 1.022254
v -1.676980 4.917663 1.022254
v -0.257928 4.917663 1.022254
v 1.000934 4.988352 1.022254
v 2.105300 5.197213 1.022254
v 3.062663 5.542170 1.022254
v 3.875415 6.020361 1.022254
v 4.520065 6.611869 1.022254
v 4.976150 7.300085 1.022254
v 5.250671 8.092138 1.022254
v 5.342902 8.994853 1.022254
v 5.217513 10.044515 1.022254
v 4.849654 10.893079 1.022254
v 4.239120 11.561088 1.022254
v 3.362655 12.064184 1.022254
v 2.913986 12.217899 1.022254
v 2.283222 12.332062 1.022254
v 1.470565 12.402192 1.022254
v 0.253072 11.107877 1.022254
v 1.016120 11.079608 1.022254
v 1.671321 10.993080 1.022254
v 2.218292 10.844259 1.022254
v 2.657787 10.624735 1.022254
v 2.995727 10.321790 1.022254
v 3.236343 9.935122 1.022254
v 3.376407 9.477916 1.022254
v 3.422874 8.942462 1.022254
v 3.175605 7.760509 1.022254
v 2.415153 6.894540 1.022254
v 1.196391 6.394893 1.022254
v -0.435302 6.235723 1.022254
v -1.665457 6.235723 1.022254
v -1.665457 11.107877 1.022254
vt 0.462140 0.618797
vt 0.462140 0.001982
vt 0.494853 0.001982
vt 0.494853 0.618797
vt 0.503368 0.003930
vt 0.503368 0.616849
vt 0.511884 0.014141
vt 0.511884 0.606638
vt 0.830368 0.598471
vt 0.830368 0.825613
vt 0.797655 0.825613
vt 0.797655 0.598471
vt 0.789140 0.827562
vt 0.789140 0.600419
vt 0.780624 0.837772
vt 0.780624 0.610630
vt 0.942128 0.689633
vt 0.942128 0.730967
vt 0.909415 0.730967
vt 0.909415 0.689633
vt 0.942128 0.777643
vt 0.909415 0.777643
vt 0.900899 0.731390
vt 0.900899 0.690504
vt 0.942128 0.653624
vt 0.909415 0.653624
vt 0.942128 0.831823
vt 0.909415 0.831823
vt 0.900899 0.777626
vt 0.892384 0.733611
vt 0.892384 0.695068
vt 0.900899 0.654898
vt 0.942128 0.622967
vt 0.909415 0.622967
vt 0.942128 0.876611
vt 0.909415 0.876611
vt 0.900899 0.831309
vt 0.892384 0.777538
vt 0.892384 0.661579
vt 0.900899 0.624542
vt 0.942128 0.598471
vt 0.909415 0.598471
vt 0.942128 0.912017
vt 0.909415 0.912017
vt 0.900899 0.875537
vt 0.892384 0.828617
vt 0.900899 0.910478
vt 0.892384 0.869909
vt 0.557104 0.732815
vt 0.557104 0.713312
vt 0.589817 0.713312
vt 0.589817 0.732815
vt 0.557104 0.690323
vt 0.589817 0.690323
vt 0.598333 0.713685
vt 0.598333 0.733628
vt 0.557104 0.748812
vt 0.589817 0.748812
vt 0.557104 0.637692
vt 0.589817 0.637692
vt 0.598333 0.690205
vt 0.606849 0.715644
vt 0.606849 0.737892
vt 0.598333 0.750077
vt 0.557104 0.761304
vt 0.589817 0.761304
vt 0.557104 0.600100
vt 0.589817 0.600100
vt 0.598333 0.636792
vt 0.606849 0.689588
vt 0.606849 0.756708
vt 0.598333 0.762929
vt 0.598333 0.598471
vt 0.606849 0.632072
vt 0.774489 0.610630
vt 0.774489 0.823399
vt 0.741776 0.823399
vt 0.741776 0.610630
vt 0.733260 0.825347
vt 0.733260 0.608681
vt 0.724744 0.835558
vt 0.724744 0.598471
vt 0.998008 0.789049
vt 0.998008 0.993097
vt 0.965295 0.993097
vt 0.965295 0.789049
vt 0.956779 0.991149
vt 0.956779 0.789072
vt 0.998008 0.740222
vt 0.965295 0.740222
vt 0.948263 0.980938
vt 0.948263 0.789193
vt 0.956779 0.740329
vt 0.998008 0.699736
vt 0.965295 0.699736
vt 0.948263 0.740889
vt 0.956779 0.699993
vt 0.998008 0.667580
vt 0.965295 0.667580
vt 0.948263 0.701344
vt 0.956779 0.668072
vt 0.998008 0.643775
vt 0.965295 0.643775
vt 0.948263 0.670651
vt 0.956779 0.644583
vt 0.998008 0.598471
vt 0.965295 0.598471
vt 0.948263 0.648818
vt 0.956779 0.599704
vt 0.948263 0.606167
vt 0.501225 0.733990
vt 0.501225 0.622788
vt 0.533938 0.622788
vt 0.533938 0.733990
vt 0.542453 0.624736
vt 0.542453 0.732042
vt 0.550969 0.634947
vt 0.550969 0.721831
vt 0.836504 0.863774
vt 0.836504 0.806538
vt 0.869217 0.806538
vt 0.869217 0.863774
vt 0.836504 0.744144
vt 0.869217 0.744144
vt 0.877732 0.806593
vt 0.877732 0.865722
vt 0.836504 0.688670
vt 0.869217 0.688670
vt 0.877732 0.744381
vt 0.886248 0.806879
vt 0.886248 0.875933
vt 0.836504 0.640106
vt 0.869217 0.640106
vt 0.877732 0.689184
vt 0.886248 0.745621
vt 0.877732 0.640937
vt 0.886248 0.691881
vt 0.869217 0.598471
vt 0.877732 0.599636
vt 0.886248 0.645294
vt 0.886248 0.605744
vt 0.668864 0.715713
vt 0.668864 0.679380
vt 0.701577 0.679380
vt 0.701577 0.715713
vt 0.668864 0.648877
vt 0.701577 0.648877
vt 0.710093 0.679216
vt 0.710093 0.715677
vt 0.668864 0.796688
vt 0.701577 0.796688
vt 0.668864 0.624213
vt 0.701577 0.624213
vt 0.710093 0.648492
vt 0.718609 0.678357
vt 0.718609 0.715488
vt 0.710093 0.798636
vt 0.668864 0.605368
vt 0.701577 0.605368
vt 0.710093 0.623515
vt 0.718609 0.646474
vt 0.718609 0.808847
vt 0.710093 0.604263
vt 0.718609 0.619857
vt 0.718609 0.598471
vt 0.662729 0.605724
vt 0.662729 0.660737
vt 0.630016 0.660737
vt 0.630016 0.605724
vt 0.662729 0.737770
vt 0.630016 0.737770
vt 0.621500 0.660263
vt 0.621500 0.604562
vt 0.662729 0.784881
vt 0.630016 0.784881
vt 0.621500 0.737675
vt 0.612984 0.657778
vt 0.612984 0.598471
vt 0.621500 0.786829
vt 0.612984 0.737179
vt 0.612984 0.797040
vt 0.254867 0.003140
vt 0.295353 0.006634
vt 0.327509 0.012454
vt 0.351314 0.020610
vt 0.396618 0.046615
vt 0.428978 0.082021
vt 0.448394 0.126809
vt 0.454866 0.180989
vt 0.450097 0.227665
vt 0.435771 0.268998
vt 0.411907 0.305008
vt 0.378496 0.335664
vt 0.336862 0.360161
vt 0.288297 0.377659
vt 0.232823 0.388151
vt 0.170429 0.391654
vt 0.113193 0.391654
vt 0.113193 0.618797
vt 0.001992 0.618797
vt 0.001992 0.001982
vt 0.206040 0.001982
vt 0.113754 0.090429
vt 0.113754 0.303198
vt 0.160865 0.303198
vt 0.237899 0.295684
vt 0.292911 0.273130
vt 0.325923 0.235538
vt 0.336933 0.182908
vt 0.334938 0.159919
vt 0.328964 0.140416
vt 0.319009 0.124418
vt 0.305074 0.111926
vt 0.286230 0.102514
vt 0.261565 0.095803
vt 0.231062 0.091775
vt 0.194729 0.090429
vt 0.881840 0.274531
vt 0.914923 0.304887
vt 0.907101 0.311567
vt 0.875732 0.282784
vt 0.710404 0.594479
vt 0.518659 0.594479
vt 0.518659 0.001982
vt 0.605543 0.001982
vt 0.605543 0.229125
vt 0.674597 0.229125
vt 0.735855 0.232565
vt 0.789595 0.242728
vt 0.836182 0.259514
vt 0.929295 0.345057
vt 0.942654 0.383600
vt 0.947142 0.427527
vt 0.941040 0.478605
vt 0.923140 0.519898
vt 0.893430 0.552404
vt 0.850780 0.576886
vt 0.828947 0.584366
vt 0.798253 0.589921
vt 0.758708 0.593334
vt 0.699463 0.530350
vt 0.736594 0.528975
vt 0.768477 0.524764
vt 0.795093 0.517522
vt 0.816480 0.506840
vt 0.832925 0.492098
vt 0.844633 0.473282
vt 0.851449 0.451034
vt 0.853710 0.424978
vt 0.841678 0.367462
vt 0.804673 0.325323
vt 0.745366 0.301009
vt 0.665965 0.293264
vt 0.606104 0.293264
vt 0.606104 0.530350
vt 0.931829 0.525526
vt 0.899893 0.560467
vt 0.810688 0.498320
vt 0.825025 0.485467
vt 0.832234 0.372181
vt 0.798582 0.333861
vn 0.000000 0.000000 -1.000000
vn 0.000000 0.000000 -1.000000
vn 0.000000 0.000000 -1.000000
vn 0.000000 0.000000 -1.000000
vn 0.000000 0.000000 -1.000000
vn 0.000000 0.000000 -1.000000
vn 0.000000 0.000000 -1.000000
vn 0.000000 0.000000 -1.000000
vn 0.000000 0.000000 -1.000000
vn 0.000000 0.000000 -1.000000
vn 0.000000 0.000000 -1.000000
vn 0.000000 0.000000 -1.000000
vn 0.000000 0.000000 -1.000000
vn 0.000000 0.000000 -1.000000
vn 0.000000 0.000000 -1.000000
vn 0.000000 0.000000 -1.000000
vn 0.000000 0.000000 -1.000000
vn 0.000000 0.000000 -1.000000
vn 0.000000 0.000000 -1.000000
vn 0.000000 0.000000 -1.000000
vn 0.000000 0.000000 -1.000000
vn 0.000000 0.000000 -1.000000
vn 0.000000 0.000000 -1.000000
vn 0.000000 0.000000 -1.000000
vn 0.000000 0.000000 -1.000000
vn 0.000000 0.000000 -1.000000
vn 0.000000 0.000000 -1.000000
vn 0.000000 0.000000 -1.000000
vn 0.000000 0.000000 -1.000000
vn 0.000000 0.000000 -1.000000
vn 0.000000 0.000000 -1.000000
vn 0.000000 0.000000 -1.000000
vn 0.000000 0.000000 -1.000000
vn 0.000000 0.000000 -1.000000
vn 0.000000 0.000000 -1.000000
vn 0.000000 0.000000 -1.000000
vn 0.004580 0.999990 0.000000
vn -0.949400 0.314070 0.000000
vn 0.004581 0.998892 0.046845
vn -0.948075 0.313632 0.052815
vn -0.984135 -0.177423 0.000000
vn -0.982948 -0.177412 0.048362
vn 0.898144 -0.439702 0.000000
vn 0.897811 -0.436887 0.055375
vn 0.969689 -0.244344 0.000000
vn 0.967313 -0.245434 0.063777
vn 0.029275 -0.999571 0.000000
vn 0.029235 -0.998466 0.047018
vn 0.117907 -0.993025 0.000000
vn 0.117777 -0.991930 0.046952
vn 0.259798 -0.965663 0.000000
vn 0.259548 -0.964594 0.046836
vn 0.422077 -0.906560 0.000000
vn 0.421665 -0.905544 0.046794
vn 0.592198 -0.805792 0.000000
vn 0.591541 -0.804927 0.046605
vn 0.758514 -0.651657 0.000000
vn 0.757678 -0.650941 0.046895
vn 0.896649 -0.442743 0.000000
vn 0.895726 -0.442145 0.046718
vn 0.977264 -0.212028 0.000000
vn 0.976220 -0.211687 0.046722
vn 0.999857 0.016886 0.000000
vn 0.998772 0.016866 0.046586
vn 0.967449 0.253065 0.000000
vn 0.966434 0.252631 0.046717
vn 0.840117 0.542405 0.000000
vn 0.839190 0.541808 0.046951
vn 0.620250 0.784404 0.000000
vn 0.619428 0.783662 0.046720
vn 0.443119 0.896463 0.000000
vn 0.442572 0.895518 0.046666
vn 0.242298 0.970202 0.000000
vn 0.241955 0.969160 0.046761
vn 0.127174 0.991881 0.000000
vn 0.127005 0.990793 0.046901
vn 0.052016 0.998646 0.000000
vn 0.051949 0.997543 0.047003
vn -0.011474 -0.999934 0.000000
vn -0.080153 -0.996783 0.000000
vn -0.011461 -0.998815 0.047305
vn -0.080047 -0.995656 0.047563
vn -0.191076 -0.981575 0.000000
vn -0.190817 -0.980462 0.047787
vn -0.347483 -0.937686 0.000000
vn -0.346985 -0.936633 0.048164
vn -0.555606 -0.831446 0.000000
vn -0.554759 -0.830586 0.048672
vn -0.766250 -0.642543 0.000000
vn -0.765319 -0.641765 0.049231
vn -0.912357 -0.409396 0.000000
vn -0.911375 -0.408695 0.048627
vn -0.982861 -0.184347 0.000000
vn -0.981728 -0.184128 0.048025
vn -0.992968 0.118383 0.000000
vn -0.991820 0.118032 0.048601
vn -0.898726 0.438511 0.000000
vn -0.897516 0.438043 0.050830
vn -0.564160 0.825665 0.000000
vn -0.563223 0.824792 0.049979
vn -0.222023 0.975042 0.000000
vn -0.221693 0.973906 0.048581
vn -0.060420 0.998173 0.000000
vn -0.060352 0.997046 0.047510
vn 0.976353 0.216182 0.000000
vn 0.974024 0.217588 0.062712
vn 0.934605 -0.355687 0.000000
vn 0.932278 -0.355218 0.068391
vn -0.777190 0.256778 0.574492
vn 0.003837 0.818453 0.574560
vn -0.829102 -0.150136 0.538561
vn 0.740769 -0.330757 0.584689
vn 0.667513 -0.190100 0.719923
vn 0.023540 -0.814408 0.579815
vn 0.096189 -0.812859 0.574463
vn 0.212468 -0.791299 0.573327
vn 0.345678 -0.743792 0.572084
vn 0.485202 -0.661819 0.571467
vn 0.622936 -0.536732 0.569095
vn 0.735201 -0.362712 0.572642
vn 0.803151 -0.172894 0.570137
vn 0.822640 0.013902 0.568392
vn 0.796426 0.206248 0.568478
vn 0.690075 0.445505 0.570370
vn 0.508735 0.647009 0.567950
vn 0.363343 0.736760 0.570233
vn 0.197701 0.795688 0.572534
vn 0.103632 0.811122 0.575623
vn 0.042330 0.815237 0.577578
vn -0.009237 -0.811163 0.584747
vn -0.064788 -0.807248 0.586645
vn -0.153925 -0.792683 0.589882
vn -0.278440 -0.753973 0.594976
vn -0.442132 -0.665604 0.601241
vn -0.608562 -0.510425 0.607552
vn -0.730273 -0.325197 0.600789
vn -0.790893 -0.148380 0.593693
vn -0.794481 0.092090 0.600266
vn -0.702591 0.344457 0.622668
vn -0.442981 0.653376 0.613895
vn -0.177245 0.780957 0.598907
vn -0.048488 0.807679 0.587625
vn 0.676114 0.172872 0.716230
vn 0.625523 -0.242982 0.741405
vn -0.199567 0.065714 0.977678
vn 0.000735 0.154036 0.988065
vn -0.188502 -0.033742 0.981493
vn 0.112073 -0.042869 0.992775
vn 0.011503 -0.003497 0.999928
vn 0.002953 -0.104524 0.994518
vn 0.013622 -0.115590 0.993204
vn 0.028356 -0.105949 0.993967
vn 0.043824 -0.094580 0.994552
vn 0.056777 -0.077666 0.995361
vn 0.068997 -0.059669 0.995831
vn 0.079075 -0.039039 0.996104
vn 0.091060 -0.019470 0.995655
vn 0.090568 0.001538 0.995889
vn 0.093560 0.024003 0.995324
vn 0.082170 0.053038 0.995206
vn 0.053039 0.067813 0.996287
vn 0.037458 0.075982 0.996405
vn 0.017986 0.072819 0.997183
vn 0.010211 0.080204 0.996726
vn 0.005956 0.115043 0.993343
vn -0.001133 -0.100804 0.994906
vn -0.007902 -0.098406 0.995115
vn -0.020014 -0.103031 0.994477
vn -0.040913 -0.110670 0.993015
vn -0.101031 -0.152120 0.983185
vn -0.124299 -0.104281 0.986750
vn -0.176786 -0.078644 0.981102
vn -0.043186 -0.008115 0.999034
vn -0.085421 0.009648 0.996298
vn -0.068823 0.033866 0.997054
vn -0.047131 0.069647 0.996458
vn -0.022249 0.097985 0.994939
vn -0.005969 0.101382 0.994830
vn 0.174764 0.047995 0.983440
vn 0.020881 -0.008222 0.999748
s 1
f 4/199/1 3/200/2 5/198/3
f 3/200/2 2/201/4 5/198/3
f 2/201/4 36/203/5 5/198/3
f 36/203/5 35/204/6 5/198/3
f 2/201/4 1/202/7 36/203/5
f 36/203/5 1/202/7 22/217/8
f 22/217/8 1/202/7 23/216/9
f 1/202/7 21/182/10 23/216/9
f 23/216/9 21/182/10 24/215/11
f 21/182/10 20/183/12 24/215/11
f 24/215/11 20/183/12 25/214/13
f 20/183/12 19/184/14 25/214/13
f 5/198/3 35/204/6 6/197/15
f 35/204/6 34/205/16 6/197/15
f 34/205/16 33/206/17 6/197/15
f 6/197/15 33/206/17 7/196/18
f 7/196/18 33/206/17 8/195/19
f 33/206/17 32/207/20 8/195/19
f 8/195/19 32/207/20 9/194/21
f 9/194/21 32/207/20 10/193/22
f 32/207/20 31/208/23 10/193/22
f 10/193/22 31/208/23 11/192/24
f 11/192/24 31/208/23 12/191/25
f 12/191/25 31/208/23 13/190/26
f 31/208/23 30/209/27 13/190/26
f 13/190/26 30/209/27 14/189/28
f 14/189/28 30/209/27 15/188/29
f 30/209/27 29/210/30 15/188/29
f 15/188/29 29/210/30 16/187/31
f 29/210/30 28/211/32 16/187/31
f 16/187/31 28/211/32 17/186/33
f 28/211/32 27/212/34 17/186/33
f 17/186/33 27/212/34 18/185/35
f 27/212/34 26/213/36 18/185/35
f 18/185/35 26/213/36 19/184/14
f 19/184/14 26/213/36 25/214/13
s 2
f 1/83/37 2/84/38 37/86/39
f 37/86/39 2/84/38 38/85/40
f 2/1/38 3/2/41 38/4/40
f 38/4/40 3/2/41 39/3/42
f 3/111/41 4/112/43 39/114/42
f 39/114/42 4/112/43 40/113/44
f 4/9/43 5/10/45 40/12/44
f 40/12/44 5/10/45 41/11/46
f 5/119/45 6/120/47 41/122/46
f 41/122/46 6/120/47 42/121/48
f 6/120/47 7/123/49 42/121/48
f 42/121/48 7/123/49 43/124/50
f 7/123/49 8/127/51 43/124/50
f 43/124/50 8/127/51 44/128/52
f 8/127/51 9/132/53 44/128/52
f 44/128/52 9/132/53 45/133/54
f 9/41/53 10/33/55 45/42/54
f 45/42/54 10/33/55 46/34/56
f 10/33/55 11/25/57 46/34/56
f 46/34/56 11/25/57 47/26/58
f 11/25/57 12/17/59 47/26/58
f 47/26/58 12/17/59 48/20/60
f 12/17/59 13/18/61 48/20/60
f 48/20/60 13/18/61 49/19/62
f 13/18/61 14/21/63 49/19/62
f 49/19/62 14/21/63 50/22/64
f 14/21/63 15/27/65 50/22/64
f 50/22/64 15/27/65 51/28/66
f 15/27/65 16/35/67 51/28/66
f 51/28/66 16/35/67 52/36/68
f 16/35/67 17/43/69 52/36/68
f 52/36/68 17/43/69 53/44/70
f 17/106/69 18/102/71 53/107/70
f 53/107/70 18/102/71 54/103/72
f 18/102/71 19/98/73 54/103/72
f 54/103/72 19/98/73 55/99/74
f 19/98/73 20/94/75 55/99/74
f 55/99/74 20/94/75 56/95/76
f 20/94/75 21/89/77 56/95/76
f 56/95/76 21/89/77 57/90/78
f 21/89/77 1/83/37 57/90/78
f 57/90/78 1/83/37 37/86/39
f 22/142/79 23/143/80 58/145/81
f 58/145/81 23/143/80 59/144/82
f 23/143/80 24/146/83 59/144/82
f 59/144/82 24/146/83 60/147/84
f 24/146/83 25/152/85 60/147/84
f 60/147/84 25/152/85 61/153/86
f 25/152/85 26/158/87 61/153/86
f 61/153/86 26/158/87 62/159/88
f 26/65/87 27/57/89 62/66/88
f 62/66/88 27/57/89 63/58/90
f 27/57/89 28/49/91 63/58/90
f 63/58/90 28/49/91 64/52/92
f 28/49/91 29/50/93 64/52/92
f 64/52/92 29/50/93 65/51/94
f 29/50/93 30/53/95 65/51/94
f 65/51/94 30/53/95 66/54/96
f 30/53/95 31/59/97 66/54/96
f 66/54/96 31/59/97 67/60/98
f 31/59/97 32/67/99 67/60/98
f 67/60/98 32/67/99 68/68/100
f 32/166/99 33/167/101 68/169/100
f 68/169/100 33/167/101 69/168/102
f 33/167/101 34/170/103 69/168/102
f 69/168/102 34/170/103 70/171/104
f 34/170/103 35/174/105 70/171/104
f 70/171/104 35/174/105 71/175/106
f 35/75/105 36/76/107 71/78/106
f 71/78/106 36/76/107 72/77/108
f 36/150/107 22/142/79 72/151/108
f 72/151/108 22/142/79 58/145/81
f 38/85/40 74/87/109 37/86/39
f 37/86/39 74/87/109 73/88/110
f 38/4/40 39/3/42 74/6/109
f 74/6/109 39/3/42 75/5/111
f 39/114/42 40/113/44 75/116/111
f 75/116/111 40/113/44 76/115/112
f 40/12/44 41/11/46 76/14/112
f 76/14/112 41/11/46 77/13/113
f 42/121/48 78/125/114 41/122/46
f 41/122/46 78/125/114 77/126/113
f 43/124/50 79/129/115 42/121/48
f 42/121/48 79/129/115 78/125/114
f 43/124/50 44/128/52 79/129/115
f 79/129/115 44/128/52 80/134/116
f 44/128/52 45/133/54 80/134/116
f 80/134/116 45/133/54 81/136/117
f 45/133/54 46/138/56 81/136/117
f 81/136/117 46/138/56 82/139/118
f 47/26/58 83/32/119 46/34/56
f 46/34/56 83/32/119 82/40/118
f 47/26/58 48/20/60 83/32/119
f 83/32/119 48/20/60 84/24/120
f 48/20/60 49/19/62 84/24/120
f 84/24/120 49/19/62 85/23/121
f 49/19/62 50/22/64 85/23/121
f 85/23/121 50/22/64 86/29/122
f 51/28/66 87/37/123 50/22/64
f 50/22/64 87/37/123 86/29/122
f 52/36/68 88/45/124 51/28/66
f 51/28/66 88/45/124 87/37/123
f 52/36/68 53/44/70 88/45/124
f 88/45/124 53/44/70 89/47/125
f 53/107/70 54/103/72 89/109/125
f 89/109/125 54/103/72 90/105/126
f 54/103/72 55/99/74 90/105/126
f 90/105/126 55/99/74 91/101/127
f 55/99/74 56/95/76 91/101/127
f 91/101/127 56/95/76 92/97/128
f 56/95/76 57/90/78 92/97/128
f 92/97/128 57/90/78 93/93/129
f 57/90/78 37/86/39 93/93/129
f 93/93/129 37/86/39 73/88/110
f 58/145/81 59/144/82 94/149/130
f 94/149/130 59/144/82 95/148/131
f 59/144/82 60/147/84 95/148/131
f 95/148/131 60/147/84 96/154/132
f 60/147/84 61/153/86 96/154/132
f 96/154/132 61/153/86 97/160/133
f 61/153/86 62/159/88 97/160/133
f 97/160/133 62/159/88 98/163/134
f 62/66/88 63/58/90 98/72/134
f 98/72/134 63/58/90 99/64/135
f 64/52/92 100/56/136 63/58/90
f 63/58/90 100/56/136 99/64/135
f 65/51/94 101/55/137 64/52/92
f 64/52/92 101/55/137 100/56/136
f 65/51/94 66/54/96 101/55/137
f 101/55/137 66/54/96 102/61/138
f 66/54/96 67/60/98 102/61/138
f 102/61/138 67/60/98 103/69/139
f 68/68/100 104/73/140 67/60/98
f 67/60/98 104/73/140 103/69/139
f 69/168/102 105/172/141 68/169/100
f 68/169/100 105/172/141 104/173/140
f 70/171/104 106/176/142 69/168/102
f 69/168/102 106/176/142 105/172/141
f 70/171/104 71/175/106 106/176/142
f 106/176/142 71/175/106 107/179/143
f 71/78/106 72/77/108 107/80/143
f 107/80/143 72/77/108 108/79/144
f 58/145/81 94/149/130 72/151/108
f 72/151/108 94/149/130 108/157/144
f 74/87/109 110/91/145 73/88/110
f 73/88/110 110/91/145 109/92/146
f 74/6/109 75/5/111 110/8/145
f 110/8/145 75/5/111 111/7/147
f 75/116/111 76/115/112 111/118/147
f 111/118/147 76/115/112 112/117/148
f 76/14/112 77/13/113 112/16/148
f 112/16/148 77/13/113 113/15/149
f 78/125/114 114/130/150 77/126/113
f 77/126/113 114/130/150 113/131/149
f 79/129/115 115/135/151 78/125/114
f 78/125/114 115/135/151 114/130/150
f 80/134/116 116/137/152 79/129/115
f 79/129/115 116/137/152 115/135/151
f 81/136/117 117/140/153 80/134/116
f 80/134/116 117/140/153 116/137/152
f 82/139/118 118/141/154 81/136/117
f 81/136/117 118/141/154 117/140/153
f 83/219/119 119/220/155 82/218/118
f 82/218/118 119/220/155 118/221/154
f 84/24/120 120/31/156 83/32/119
f 83/32/119 120/31/156 119/39/155
f 84/24/120 85/23/121 120/31/156
f 120/31/156 85/23/121 121/30/157
f 85/23/121 86/29/122 121/30/157
f 121/30/157 86/29/122 122/38/158
f 87/37/123 123/46/159 86/29/122
f 86/29/122 123/46/159 122/38/158
f 88/45/124 124/48/160 87/37/123
f 87/37/123 124/48/160 123/46/159
f 88/256/124 89/257/125 124/235/160
f 124/235/160 89/257/125 125/236/161
f 89/109/125 90/105/126 125/110/161
f 125/110/161 90/105/126 126/108/162
f 90/105/126 91/101/127 126/108/162
f 126/108/162 91/101/127 127/104/163
f 91/101/127 92/97/128 127/104/163
f 127/104/163 92/97/128 128/100/164
f 92/97/128 93/93/129 128/100/164
f 128/100/164 93/93/129 129/96/165
f 93/93/129 73/88/110 129/96/165
f 129/96/165 73/88/110 109/92/146
f 94/149/130 95/148/131 130/156/166
f 130/156/166 95/148/131 131/155/167
f 95/148/131 96/154/132 131/155/167
f 131/155/167 96/154/132 132/161/168
f 96/154/132 97/160/133 132/161/168
f 132/161/168 97/160/133 133/164/169
f 97/160/133 98/163/134 133/164/169
f 133/164/169 98/163/134 134/165/170
f 98/258/134 99/259/135 134/245/170
f 134/245/170 99/259/135 135/246/171
f 100/56/136 136/63/172 99/64/135
f 99/64/135 136/63/172 135/71/171
f 101/55/137 137/62/173 100/56/136
f 100/56/136 137/62/173 136/63/172
f 101/55/137 102/61/138 137/62/173
f 137/62/173 102/61/138 138/70/174
f 102/61/138 103/69/139 138/70/174
f 138/70/174 103/69/139 139/74/175
f 104/261/140 140/251/176 103/260/139
f 103/260/139 140/251/176 139/250/175
f 105/172/141 141/177/177 104/173/140
f 104/173/140 141/177/177 140/178/176
f 106/176/142 142/180/178 105/172/141
f 105/172/141 142/180/178 141/177/177
f 106/176/142 107/179/143 142/180/178
f 142/180/178 107/179/143 143/181/179
f 107/80/143 108/79/144 143/82/179
f 143/82/179 108/79/144 144/81/180
f 94/149/130 130/156/166 108/157/144
f 108/157/144 130/156/166 144/162/180
f 112/225/148 113/226/149 111/224/147
f 111/224/147 113/226/149 110/223/145
f 110/223/145 113/226/149 144/255/180
f 144/255/180 113/226/149 143/254/179
f 110/223/145 144/255/180 109/222/146
f 113/226/149 114/227/150 143/254/179
f 143/254/179 114/227/150 142/253/178
f 142/253/178 114/227/150 141/252/177
f 114/227/150 115/228/151 141/252/177
f 115/228/151 116/229/152 141/252/177
f 141/252/177 116/229/152 140/251/176
f 116/229/152 117/230/153 140/251/176
f 140/251/176 117/230/153 139/250/175
f 117/230/153 118/221/154 139/250/175
f 118/221/154 119/220/155 139/250/175
f 139/250/175 119/220/155 138/249/174
f 119/220/155 120/231/156 138/249/174
f 120/231/156 121/232/157 138/249/174
f 138/249/174 121/232/157 137/248/173
f 121/232/157 122/233/158 137/248/173
f 122/233/158 123/234/159 137/248/173
f 123/234/159 124/235/160 137/248/173
f 124/235/160 125/236/161 137/248/173
f 125/236/161 126/237/162 137/248/173
f 126/237/162 127/238/163 137/248/173
f 137/248/173 127/238/163 136/247/172
f 127/238/163 128/239/164 136/247/172
f 136/247/172 128/239/164 135/246/171
f 128/239/164 129/240/165 135/246/171
f 135/246/171 129/240/165 134/245/170
f 134/245/170 129/240/165 133/244/169
f 133/244/169 129/240/165 132/243/168
f 132/243/168 129/240/165 131/242/167
f 129/240/165 109/222/146 131/242/167
f 144/255/180 130/241/166 109/222/146
f 109/222/146 130/241/166 131/242/167
