# This file uses centimeters as units for non-parametric coordinates.

g default
v -1.279062 -1.128751 -4.000000
v 1.346720 -1.123904 -4.000000
v -1.682510 1.607821 -4.000000
v 1.698166 1.602108 -4.000000
v -1.781866 1.489518 -8.432140
v 1.849183 1.527713 -8.981603
v -1.057460 -0.234814 -10.123988
v 1.085715 -0.054885 -10.410144
v -1.992969 1.700054 -6.004133
v 1.758981 1.082666 -9.947331
v 0.000841 -0.227659 -10.467105
v -1.759081 0.991982 -9.322487
v 1.799515 -1.530037 -6.337199
v -1.624578 -1.461551 -6.657243
v -0.004621 -1.746692 -4.000000
v 1.874139 0.055168 -4.000000
v -0.003828 2.005626 -4.000000
v -1.784361 0.070566 -4.000000
v 2.059412 1.652463 -5.987554
v 0.018898 1.781024 -9.140019
v -0.002411 2.024701 -5.984547
v -0.003963 -1.816578 -6.303250
v 2.357367 0.059121 -6.145876
v -2.195782 0.084286 -6.343382
v 2.214488 -0.776472 -6.309074
v 2.370375 0.020843 -4.907563
v 1.723503 -0.594443 -4.000000
v 1.577640 0.534389 -10.338869
v 2.323436 0.455741 -8.189899
v 2.295861 0.909079 -6.000622
v 1.908270 0.875936 -4.000000
v -2.046937 -0.737630 -6.595009
v -2.070664 0.606465 -8.051591
v -1.592527 0.365274 -9.880393
v -1.624882 -0.587867 -4.000000
v -2.057362 0.022586 -4.977424
v -1.862378 0.890798 -4.000000
v -2.201353 0.963819 -6.133508
v -1.018110 1.938283 -4.000000
v -0.001509 2.223200 -4.940573
v -1.251420 2.027069 -5.987571
v -1.891773 1.667316 -4.950719
v 1.017816 1.937010 -4.000000
v 1.925066 1.659705 -4.946242
v 1.281364 1.989345 -5.986682
v 1.924545 1.640446 -7.463648
v 1.087301 1.780898 -9.177052
v 0.005233 1.895775 -7.273903
v -1.011162 1.740731 -8.905297
v -1.860615 1.688626 -7.217369
v -0.012333 -1.323629 -8.261263
v -0.915962 -1.807522 -6.300172
v -1.482475 -0.823784 -8.870261
v 1.645382 -0.892753 -8.731178
v 0.930892 -1.804405 -6.281393
v 1.803252 -1.649849 -5.011337
v 0.722206 -1.555282 -4.000000
v -0.007698 -1.994557 -5.085093
v -0.706707 -1.563671 -4.000000
v -1.511853 -1.484140 -4.963866
v -1.177885 2.030681 -4.949757
v 1.201058 2.068840 -4.943722
v 1.169184 1.895645 -7.336363
v -1.115250 1.902873 -7.245675
v -0.930801 -1.508197 -8.304155
v 0.899812 -1.228534 -8.361530
v 0.905849 -1.888549 -5.052119
v -0.953328 -1.980417 -5.019545
v 2.131784 -0.811257 -4.927032
v 2.158738 -0.213147 -8.723277
v 2.254696 1.178114 -7.794945
v 2.159008 0.894812 -4.946892
v -1.880648 -0.109080 -8.569177
v -1.907454 -0.788660 -4.982950
v -2.081186 0.913988 -4.954915
v -2.074486 1.220954 -7.468587
v 0.004898 1.412267 -10.688527
v 0.000021 0.776083 -11.032683
v 0.985594 0.805009 -10.929483
v 1.015965 1.420408 -10.581197
v -1.014468 1.250590 -10.202687
v -1.002284 0.630455 -10.595222
vt 0.227982 0.423742
vt 0.266163 0.356854
vt 0.315078 0.402936
vt 0.282734 0.462463
vt 0.331335 0.278725
vt 0.377412 0.323659
vt 0.427341 0.371982
vt 0.369426 0.445445
vt 0.341785 0.498395
vt 0.408108 0.211798
vt 0.456071 0.259369
vt 0.474392 0.171343
vt 0.515745 0.225006
vt 0.557442 0.281793
vt 0.503116 0.312412
vt 0.550631 0.384723
vt 0.489529 0.432217
vt 0.601988 0.366350
vt 0.654874 0.447189
vt 0.622966 0.479616
vt 0.572710 0.515279
vt 0.439210 0.487094
vt 0.410574 0.530351
vt 0.522708 0.549693
vt 0.474348 0.572924
vt 0.599625 0.698377
vt 0.464593 0.786182
vt 0.493496 0.726623
vt 0.693909 0.699235
vt 0.927648 0.401191
vt 0.923037 0.225247
vt 0.309995 0.796307
vt 0.334206 0.743192
vt 0.773530 0.577333
vt 0.863498 0.396434
vt 0.807493 0.414647
vt 0.795586 0.237528
vt 0.858515 0.226774
vt 0.831956 0.135158
vt 0.209851 0.844090
vt 0.770512 0.150664
vt 0.737834 0.070103
vt 0.802921 0.057665
vt 0.858328 0.042251
vt 0.215975 0.775146
vt 0.216654 0.719910
vt 0.135779 0.756202
vt 0.144538 0.692966
vt 0.704925 0.155082
vt 0.678154 0.086217
vt 0.736437 0.246472
vt 0.673492 0.249964
vt 0.641523 0.171667
vt 0.615931 0.104923
vt 0.755991 0.414167
vt 0.735138 0.535732
vt 0.700166 0.501843
vt 0.702636 0.383815
vt 0.647014 0.371457
vt 0.610218 0.260231
vt 0.574619 0.195694
vt 0.541451 0.135537
vt 0.469133 0.673808
vt 0.558963 0.660743
vt 0.332425 0.683657
vt 0.324685 0.620052
vt 0.438544 0.620395
vt 0.520924 0.618739
vt 0.223362 0.658913
vt 0.153829 0.633192
vt 0.167819 0.568861
vt 0.235041 0.593516
vt 0.255774 0.522190
vt 0.328248 0.553680
vt 0.194882 0.491828
vt 0.412642 0.569231
vt 0.850085 0.602005
vt 0.897453 0.120917
vt 0.316364 0.859301
vt 0.126466 0.811415
vt 0.498502 0.846956
vt 0.641103 0.587652
vt 0.666037 0.622581
vt 0.711254 0.578290
vt 0.678517 0.548454
vt 0.586106 0.610532
vt 0.613563 0.649682
vn -0.748267 0.630540 0.206195
vn -0.242161 0.955673 0.167470
vn -0.240022 0.969334 0.052732
vn -0.772191 0.619609 0.140736
vn -0.008753 0.983334 0.181596
vn -0.003570 0.999773 0.020984
vn 0.004304 0.994911 -0.100665
vn -0.183306 0.980746 -0.067353
vn -0.739209 0.673471 0.002733
vn 0.237148 0.952198 0.192560
vn 0.242314 0.969283 0.042127
vn 0.734829 0.637488 0.231595
vn 0.753532 0.641387 0.144269
vn 0.719666 0.694287 0.006727
vn 0.197345 0.977466 -0.074940
vn 0.138688 0.987638 -0.073059
vn -0.004059 0.996816 -0.079632
vn 0.596206 0.800715 -0.058249
vn 0.700343 0.681935 -0.210913
vn 0.162988 0.972553 -0.166059
vn -0.053706 0.985468 -0.161149
vn -0.136811 0.985478 -0.100574
vn -0.602249 0.791035 -0.107517
vn -0.240977 0.948453 -0.205830
vn -0.677994 0.700102 -0.224012
vn -0.302304 -0.727362 -0.616082
vn -0.181338 -0.926034 -0.331025
vn -0.741913 -0.588540 -0.321225
vn 0.006302 -0.769212 -0.638963
vn 0.062544 -0.926601 -0.370808
vn 0.053258 -0.980704 -0.188105
vn -0.228879 -0.961426 -0.152561
vn -0.731243 -0.670285 -0.126499
vn 0.326928 -0.722273 -0.609459
vn 0.156412 -0.923134 -0.351224
vn 0.602332 -0.723154 -0.338000
vn 0.611847 -0.774261 -0.161750
vn 0.168602 -0.966347 -0.194286
vn 0.222193 -0.967848 0.117901
vn 0.028317 -0.998066 0.055334
vn 0.638733 -0.747911 0.180693
vn 0.569428 -0.656550 0.494666
vn 0.261120 -0.893505 0.365330
vn 0.033711 -0.955296 0.293722
vn -0.318457 -0.942518 0.101216
vn -0.729459 -0.664237 0.163335
vn -0.323229 -0.870706 0.370666
vn -0.699830 -0.600539 0.386771
vn 0.913939 -0.343165 0.216689
vn 0.812130 -0.330615 0.480769
vn 0.927703 -0.365527 -0.075877
vn 0.998168 -0.060097 -0.006984
vn 0.977402 -0.056715 0.203641
vn 0.905949 -0.061160 0.418945
vn 0.897178 -0.340342 -0.281494
vn 0.826851 -0.199213 -0.525957
vn 0.849345 0.362416 -0.383755
vn 0.990899 0.000215 -0.134610
vn 0.964417 0.253793 -0.074086
vn 0.975240 0.218919 0.031324
vn 0.959715 0.204303 0.192894
vn 0.931008 0.187605 0.313097
vn -0.927807 -0.288795 -0.236159
vn -0.883241 -0.117042 -0.454077
vn -0.936870 -0.341447 -0.075429
vn -0.995083 -0.097898 -0.015038
vn -0.987948 -0.013416 -0.154201
vn -0.863655 0.362796 -0.349970
vn -0.918611 -0.360880 0.160995
vn -0.885556 -0.334363 0.322479
vn -0.955064 -0.126100 0.268239
vn -0.979157 -0.121750 0.162569
vn -0.983068 0.084248 0.162723
vn -0.992814 0.118592 0.016004
vn -0.968056 0.077663 0.238404
vn -0.978968 0.177816 -0.100018
vn -0.454819 0.750585 -0.479336
vn 0.264027 0.827155 -0.496089
vn 0.313584 -0.053683 -0.948042
vn -0.521165 -0.034131 -0.852773
vn -0.137790 -0.096523 -0.985747
vn -0.134336 0.845782 -0.516339
s 1
g Low_Poly_RockEnd
f 3/1/1 39/2/2 61/3/3 42/4/4
f 39/2/2 17/5/5 40/6/6 61/3/3
f 61/3/3 40/6/6 21/7/7 41/8/8
f 42/4/4 61/3/3 41/8/8 9/9/9
f 17/5/5 43/10/10 62/11/11 40/6/6
f 43/10/10 4/12/12 44/13/13 62/11/11
f 62/11/11 44/13/13 19/14/14 45/15/15
f 40/6/6 62/11/11 45/15/15 21/7/7
f 21/7/7 45/15/15 63/16/16 48/17/17
f 45/15/15 19/14/14 46/18/18 63/16/16
f 63/16/16 46/18/18 6/19/19 47/20/20
f 48/17/17 63/16/16 47/20/20 20/21/21
f 9/9/9 41/8/8 64/22/22 50/23/23
f 41/8/8 21/7/7 48/17/17 64/22/22
f 64/22/22 48/17/17 20/21/21 49/24/24
f 50/23/23 64/22/22 49/24/24 5/25/25
f 7/26/26 65/27/27 53/28/28
f 7/26/26 11/29/29 51/81/30 65/27/27
f 65/27/27 51/81/30 22/79/31 52/32/32
f 53/28/28 65/27/27 52/32/32 14/33/33
f 11/77/29 8/34/34 66/35/35 51/30/30
f 8/34/34 54/36/36 66/35/35
f 66/35/35 54/36/36 13/37/37 55/38/38
f 51/30/30 66/35/35 55/38/38 22/31/31
f 22/31/31 55/38/38 67/39/39 58/78/40
f 55/38/38 13/37/37 56/41/41 67/39/39
f 67/39/39 56/41/41 2/42/42 57/43/43
f 58/78/40 67/39/39 57/43/43 15/44/44
f 14/33/33 52/32/32 68/45/45 60/46/46
f 52/32/32 22/79/31 58/40/40 68/45/45
f 68/45/45 58/40/40 15/80/44 59/47/47
f 60/46/46 68/45/45 59/47/47 1/48/48
f 2/42/42 56/41/41 69/49/49 27/50/50
f 56/41/41 13/37/37 25/51/51 69/49/49
f 69/49/49 25/51/51 23/52/52 26/53/53
f 27/50/50 69/49/49 26/53/53 16/54/54
f 13/37/37 54/36/36 70/55/55 25/51/51
f 54/36/36 8/34/34 28/56/56 70/55/55
f 70/55/55 28/56/56 10/57/57 29/58/58
f 25/51/51 70/55/55 29/58/58 23/52/52
f 23/52/52 29/58/58 71/59/59 30/60/60
f 29/58/58 10/57/57 6/19/19 71/59/59
f 71/59/59 6/19/19 46/18/18
f 30/60/60 71/59/59 46/18/18 19/14/14
f 16/54/54 26/53/53 72/61/61 31/62/62
f 26/53/53 23/52/52 30/60/60 72/61/61
f 72/61/61 30/60/60 19/14/14 44/13/13
f 31/62/62 72/61/61 44/13/13 4/12/12
f 7/26/26 53/28/28 73/63/63 34/64/64
f 53/28/28 14/33/33 32/65/65 73/63/63
f 73/63/63 32/65/65 24/66/66 33/67/67
f 34/64/64 73/63/63 33/67/67 12/68/68
f 14/33/33 60/46/46 74/69/69 32/65/65
f 60/46/46 1/48/48 35/70/70 74/69/69
f 74/69/69 35/70/70 18/71/71 36/72/72
f 32/65/65 74/69/69 36/72/72 24/66/66
f 24/66/66 36/72/72 75/73/73 38/74/74
f 36/72/72 18/71/71 37/75/75 75/73/73
f 75/73/73 37/75/75 3/1/1 42/4/4
f 38/74/74 75/73/73 42/4/4 9/9/9
f 12/68/68 33/67/67 76/76/76 5/25/25
f 33/67/67 24/66/66 38/74/74 76/76/76
f 76/76/76 38/74/74 9/9/9 50/23/23
f 5/25/25 76/76/76 50/23/23
f 49/24/24 81/86/77 12/68/68 5/25/25
f 10/57/57 80/85/78 47/20/20 6/19/19
f 8/34/34 79/84/79 28/56/56
f 34/64/64 82/87/80 7/26/26
f 12/68/68 81/86/77 82/87/80 34/64/64
f 28/56/56 79/84/79 80/85/78 10/57/57
f 11/29/29 78/83/81 79/84/79 8/34/34
f 80/85/78 79/84/79 78/83/81 77/82/82
f 47/20/20 80/85/78 77/82/82 20/21/21
f 49/24/24 20/21/21 77/82/82 81/86/77
f 82/87/80 81/86/77 77/82/82 78/83/81
f 7/26/26 82/87/80 78/83/81 11/29/29
